G04 ================== begin FILE IDENTIFICATION RECORD ==================*
G04 Layout Name:  D:/Project/Circuit/BVP/04v5/pcb/BVP_04V5.brd*
G04 Film Name:    BOTTOM*
G04 File Format:  Gerber RS274X*
G04 File Origin:  Cadence Allegro 16.6-2015-S053*
G04 Origin Date:  Mon Dec 21 09:07:19 2015*
G04 *
G04 Layer:  VIA CLASS/BOTTOM*
G04 Layer:  PIN/BOTTOM*
G04 Layer:  ETCH/BOTTOM*
G04 *
G04 Offset:    (0.000 0.000)*
G04 Mirror:    No*
G04 Mode:      Positive*
G04 Rotation:  0*
G04 FullContactRelief:  No*
G04 UndefLineWidth:     0.250*
G04 ================== end FILE IDENTIFICATION RECORD ====================*
%FSLAX34Y34*MOMM*%
%IR0*IPPOS*OFA0.00000B0.00000*MIA0B0*SFA1.00000B1.00000*%
%ADD13C,1.*%
%ADD15C,2.*%
%ADD10C,4.*%
%ADD14C,1.6*%
%ADD11C,1.55*%
%ADD12R,1.55X1.55*%
%ADD16C,.2*%
%ADD17C,.4*%
%ADD18C,.5*%
%ADD19C,.25*%
%ADD25C,2.104*%
%ADD23C,3.004*%
%ADD26C,2.204*%
%ADD27C,2.504*%
%ADD21C,2.054*%
%ADD24C,2.604*%
%ADD22C,2.154*%
%ADD20O,1.504X28.809*%
G75*
%LPD*%
G75*
G36*
G01X-64910Y-76200D02*
G02X-66160Y-75230I-31J1251D01*
G01X-66810Y-72430D01*
X-66440Y-71660D01*
X-66040Y-71460D01*
G03X-85310Y-29660I-10149J20663D01*
G01X-85390Y-29700D01*
X-85590Y-29750D01*
G02X-86600Y-29590I-327J1204D01*
G01X-88340Y-28450D01*
G02X-88900Y-27410I690J1042D01*
G01Y814800D01*
G02X-88340Y815850I1252J7D01*
G01X-86320Y817170D01*
X-85690Y817230D01*
X-85400Y817100D01*
G03X-85310Y859340I9200J21100D01*
G01X-85390Y859300D01*
X-85590Y859250D01*
G02X-86600Y859410I-327J1204D01*
G01X-88340Y860550D01*
G02X-88900Y861590I690J1042D01*
G01Y1259300D01*
G02X-88340Y1260350I1252J7D01*
G01X-86320Y1261670D01*
X-85690Y1261730D01*
X-85400Y1261600D01*
G03X-85310Y1303840I9200J21100D01*
G01X-85390Y1303800D01*
X-85590Y1303750D01*
G02X-86600Y1303910I-327J1204D01*
G01X-88340Y1305050D01*
G02X-88900Y1306090I690J1042D01*
G01Y1389400D01*
G02X-88530Y1390280I1248J-7D01*
G02X-87650Y1390650I887J-878D01*
G01X-62670D01*
X-62150Y1390380D01*
X-61970Y1390140D01*
X-60830Y1388590D01*
G02X-60550Y1387980I-956J-808D01*
G01X-60500Y1387680D01*
X-60590Y1387400D01*
G03X-40960Y1387220I9787J-3103D01*
G01X-41010Y1387400D01*
X-41090Y1387670D01*
X-41050Y1387960D01*
G02X-40820Y1388520I1237J-181D01*
G01X-39630Y1390140D01*
G02X-38620Y1390650I1007J-740D01*
G01X-38100D01*
G02X-37110Y1390160I-2J-1249D01*
G01X-37090Y1390140D01*
X-35720Y1388290D01*
X-35620Y1387710D01*
X-35710Y1387430D01*
G03X-15090I10310J-3130D01*
G01X-15180Y1387710D01*
X-15080Y1388290D01*
X-13710Y1390140D01*
G02X-12700Y1390650I1007J-740D01*
G01X-11870D01*
X-11350Y1390380D01*
X-11170Y1390140D01*
X-10030Y1388590D01*
G02X-9750Y1387980I-956J-808D01*
G01X-9700Y1387680D01*
X-9790Y1387400D01*
G03X9840Y1387220I9787J-3103D01*
G01X9790Y1387400D01*
X9710Y1387670D01*
X9750Y1387960D01*
G02X9980Y1388520I1237J-181D01*
G01X11170Y1390140D01*
G02X12180Y1390650I1007J-740D01*
G01X37830D01*
X38290Y1390460D01*
X38470Y1390280D01*
X107580Y1321170D01*
G03X108470Y1320800I888J880D01*
G01X271800D01*
G03X273050Y1322050I0J1250D01*
G01Y1349900D01*
X273220Y1350330D01*
X273390Y1350510D01*
X273500Y1350630D01*
X275340Y1351850D01*
G02X275610Y1351980I673J-1052D01*
G01X275760Y1352040D01*
X275910Y1352050D01*
X276220Y1352080D01*
X276510Y1351960D01*
G03X284930Y1364000I2892J6942D01*
G01X284780Y1364160D01*
X284520Y1364800D01*
G02X284420Y1365280I1149J490D01*
G01Y1454320D01*
G02X284460Y1454640I1251J6D01*
G01X284520Y1454850D01*
X284760Y1455210D01*
X284940Y1455340D01*
X286240Y1456490D01*
G02X286700Y1456750I831J-934D01*
G01X286970Y1456830D01*
G03X288380Y1456730I1419J10020D01*
G01X291260D01*
X292140Y1456270D01*
X292350Y1456100D01*
X292430Y1455980D01*
G03X303280Y1454730I6017J4517D01*
G01X303560Y1454970D01*
X304270Y1455060D01*
X306660Y1453950D01*
G02X307380Y1452820I-530J-1132D01*
G01Y496140D01*
X306990Y495390D01*
X306920Y495250D01*
X306810Y495120D01*
G02X306660Y494990I-891J877D01*
G01X306090Y494520D01*
G03X315670Y494970I5062J-5569D01*
G01X315550Y495050D01*
X315380Y495260D01*
X314920Y496140D01*
Y1535560D01*
G02X315060Y1536130I1250J-5D01*
G01X315310Y1536610D01*
X315380Y1536750D01*
X315490Y1536880D01*
G02X315640Y1537010I891J-876D01*
G01X316210Y1537480D01*
G03X306630Y1537030I-5062J5569D01*
G01X306750Y1536950D01*
X306920Y1536740D01*
X307380Y1535860D01*
Y1468180D01*
G02X306660Y1467050I-1250J2D01*
G01X304630Y1466090D01*
X303860Y1465720D01*
G03X292430Y1465020I-5417J-5219D01*
G01X292350Y1464900D01*
X292140Y1464730D01*
X291260Y1464270D01*
X288380D01*
G02X286560Y1465030I8J2578D01*
G01X284790Y1466800D01*
G02X284420Y1467680I878J887D01*
G01Y1473170D01*
G02X284520Y1473650I1249J-10D01*
G01X284780Y1474290D01*
X284930Y1474450D01*
G03Y1484650I-5530J5100D01*
G01X284780Y1484810D01*
X284520Y1485450D01*
G02X284420Y1485930I1149J490D01*
G01Y1553850D01*
G03X284300Y1554910I-5017J-31D01*
G01X284290Y1554920D01*
X284240Y1555200D01*
G02X284580Y1556330I1225J248D01*
G01X288950Y1560700D01*
G02X289460Y1561010I885J-882D01*
G01X289750Y1561100D01*
X290050Y1561050D01*
G03X283950Y1567220I1317J7402D01*
G01X283970Y1567120D01*
Y1566900D01*
G02X283600Y1566010I-1250J-2D01*
G01X278590Y1561010D01*
G03X276700Y1558360I7186J-7124D01*
G01X276690Y1558340D01*
X276620Y1558210D01*
X276260Y1557770D01*
X276170Y1557690D01*
G03X275310Y1556770I3210J-3862D01*
G01X275130Y1556520D01*
X274610Y1556260D01*
X274300D01*
G02X273050Y1557510I0J1250D01*
G01Y1643400D01*
G02X273420Y1644280I1248J-7D01*
G02X274300Y1644650I887J-878D01*
G01X379750D01*
G03X381000Y1645900I0J1250D01*
G01Y1694200D01*
G02X381370Y1695080I1248J-7D01*
G02X382250Y1695450I887J-878D01*
G01X665500D01*
G02X666380Y1695080I-7J-1248D01*
G02X666750Y1694200I-878J-887D01*
G01Y1309350D01*
G02X665500Y1308100I-1250J0D01*
G01X388600D01*
G03X387350Y1306850I0J-1250D01*
G01Y1303000D01*
G03X388600Y1301750I1250J0D01*
G01X671850D01*
G03X673100Y1303000I0J1250D01*
G01Y1700550D01*
G03X671850Y1701800I-1250J0D01*
G01X375900D01*
G03X374650Y1700550I0J-1250D01*
G01Y1652250D01*
G02X373400Y1651000I-1250J0D01*
G01X267950D01*
G02X266700Y1652250I0J1250D01*
G01Y1662450D01*
G03X265450Y1663700I-1250J0D01*
G01X223500D01*
G02X222250Y1664950I0J1250D01*
G01Y1670570D01*
G02X222760Y1671580I1250J3D01*
G01X224310Y1672720D01*
G02X224920Y1673000I808J-956D01*
G01X225220Y1673050D01*
X225500Y1672960D01*
G03X225580Y1692570I3097J9793D01*
G01X225490Y1692540D01*
X225280Y1692510D01*
G02X224360Y1692740I-180J1237D01*
G01X222760Y1693930D01*
G02X222250Y1694930I739J1007D01*
G01Y1700550D01*
G02X222620Y1701430I1248J-7D01*
G02X223500Y1701800I887J-878D01*
G01X252750D01*
G03X254000Y1703050I0J1250D01*
G01Y2195850D01*
G02X254370Y2196730I1248J-7D01*
G02X255250Y2197100I887J-878D01*
G01X1351280D01*
G02X1352160Y2196730I-7J-1248D01*
G02X1352530Y2195850I-878J-887D01*
G01Y2070100D01*
G03X1358900Y2063730I6370J0D01*
G01X1471950D01*
G02X1472830Y2063360I-7J-1248D01*
G02X1473200Y2062480I-878J-887D01*
G01Y1385570D01*
G02X1471950Y1384320I-1250J0D01*
G01X1365250D01*
G03X1358880Y1377950I0J-6370D01*
G01Y1193800D01*
G03X1365250Y1187430I6370J0D01*
G01X1371600D01*
G02X1377930Y1181100I0J-6330D01*
G01Y1130300D01*
G03X1384300Y1123930I6370J0D01*
G01X1471950D01*
G02X1472830Y1123560I-7J-1248D01*
G02X1473200Y1122680I-878J-887D01*
G01Y998220D01*
G02X1471950Y996970I-1250J0D01*
G01X1365250D01*
G03X1358880Y990600I0J-6370D01*
G01Y882650D01*
G03X1365250Y876280I6370J0D01*
G01X1365930D01*
G02X1366810Y875910I-7J-1248D01*
G02X1367180Y875030I-878J-887D01*
G01Y854080D01*
G03X1368430Y852830I1250J0D01*
G01X1389380D01*
G02X1390260Y852460I-7J-1248D01*
G02X1390630Y851580I-878J-887D01*
G01Y847100D01*
G02X1389820Y845930I-1250J0D01*
G01X1387260Y844960D01*
X1386520Y845150D01*
X1386250Y845450D01*
G03X1368390Y843680I-8299J-7250D01*
G01X1368370Y843650D01*
X1368280Y843510D01*
X1368200Y843420D01*
G02X1367890Y843170I-929J835D01*
G01X1367420Y842900D01*
X1367270Y842810D01*
X1367090Y842760D01*
G02X1366770Y842720I-314J1211D01*
G01X1365250D01*
G03X1354380Y831850I0J-10870D01*
G01Y742950D01*
G03X1365250Y732080I10870J0D01*
G01X1366770D01*
G02X1367090Y732040I6J-1251D01*
G01X1367270Y731990D01*
X1367420Y731900D01*
X1367890Y731630D01*
G02X1368200Y731380I-619J-1085D01*
G01X1368280Y731290D01*
X1368370Y731150D01*
X1368390Y731120D01*
G03Y742080I9560J5480D01*
G01X1368370Y742050D01*
X1368280Y741910D01*
X1368200Y741820D01*
G02X1367890Y741570I-929J835D01*
G01X1367420Y741300D01*
X1367270Y741210D01*
X1367090Y741160D01*
G02X1366770Y741120I-314J1211D01*
G01X1365250D01*
G02X1363420Y742950I0J1830D01*
G01Y831850D01*
G02X1365250Y833680I1830J0D01*
G01X1366770D01*
G02X1367090Y833640I6J-1251D01*
G01X1367270Y833590D01*
X1367920Y833210D01*
G02X1368210Y832970I-644J-1073D01*
G01X1368280Y832890D01*
X1368370Y832750D01*
X1368390Y832720D01*
G03X1388150Y834030I9560J5480D01*
G01X1388160Y834040D01*
X1388230Y834200D01*
X1388380Y834400D01*
G02X1388600Y834620I987J-767D01*
G01X1388610Y834630D01*
G02X1389930Y834770I772J-982D01*
G01X1390250Y834620D01*
X1390630Y834020D01*
Y831850D01*
G02X1384300Y825520I-6330J0D01*
G03X1377930Y819150I0J-6370D01*
G01Y781050D01*
G03X1379470Y776900I6362J0D01*
G02X1379660Y775560I-946J-818D01*
G01X1378720Y773520D01*
G02X1378700Y773480I-1128J539D01*
G01X1378690Y773460D01*
G02X1378270Y772980I-1120J557D01*
G01X1378260D01*
G02X1377570Y772770I-693J1039D01*
G01X1368430D01*
G03X1367180Y771520I0J-1250D01*
G01Y752480D01*
G03X1368430Y751230I1250J0D01*
G01X1389380D01*
G02X1390260Y750860I-7J-1248D01*
G02X1390630Y749980I-878J-887D01*
G01Y742950D01*
G03X1397000Y736580I6370J0D01*
G01X1471950D01*
G02X1472830Y736210I-7J-1248D01*
G02X1473200Y735330I-878J-887D01*
G01Y58420D01*
G02X1471950Y57170I-1250J0D01*
G01X1358900D01*
G03X1352530Y50800I0J-6370D01*
G01Y-74950D01*
G02X1351280Y-76200I-1250J0D01*
G01X-64910D01*
G37*
G36*
G01X-10760Y1662970D02*
X-10700Y1662490D01*
G03X10700Y1662460I10702J1210D01*
G01X10750Y1662940D01*
X11460Y1663570D01*
X24150Y1663550D01*
G03X25400Y1664800I0J1250D01*
G01Y1700550D01*
G02X26650Y1701800I1250J0D01*
G01X182900D01*
G02X184150Y1700550I0J-1250D01*
G01Y1694930D01*
G02X183640Y1693920I-1249J-3D01*
G01X181770Y1692550D01*
X181190Y1692450D01*
X180900Y1692540D01*
G03Y1672960I-3100J-9790D01*
G01X181190Y1673050D01*
X181770Y1672950D01*
X183640Y1671580D01*
G02X184150Y1670570I-739J-1007D01*
G01Y1603100D01*
G02X183590Y1602060I-1249J2D01*
G01X181600Y1600730D01*
X180980Y1600670D01*
X180690Y1600790D01*
G03X172420Y1588590I-2893J-6942D01*
G02X172780Y1587720I-889J-877D01*
G01Y1577030D01*
G02X172140Y1575940I-1249J0D01*
G01X169950Y1574700D01*
X169280Y1574710D01*
X168990Y1574890D01*
G03Y1562010I-3890J-6440D01*
G01X169280Y1562190D01*
X169950Y1562200D01*
X172140Y1560960D01*
G02X172780Y1559870I-609J-1090D01*
G01Y1485680D01*
G02X172420Y1484810I-1249J7D01*
G03Y1474290I5380J-5260D01*
G02X172780Y1473420I-889J-877D01*
G01Y1456380D01*
G02X172140Y1455290I-1249J0D01*
G01X169950Y1454050D01*
X169280Y1454060D01*
X168990Y1454240D01*
G03Y1441360I-3890J-6440D01*
G01X169280Y1441540D01*
X169950Y1441550D01*
X172140Y1440310D01*
G02X172780Y1439220I-609J-1090D01*
G01Y1377870D01*
G02X171530Y1376620I-1250J0D01*
G01X170980D01*
X170540Y1376800D01*
X170360Y1376980D01*
G03X158160Y1368710I-5258J-5377D01*
G01X158280Y1368420D01*
X158220Y1367800D01*
X156890Y1365810D01*
G02X155850Y1365250I-1042J689D01*
G01X140220D01*
G02X139330Y1365620I-2J1250D01*
G01X63870Y1441080D01*
G03X62980Y1441450I-888J-880D01*
G01X9310D01*
G02X8340Y1441910I-1J1251D01*
G03X-8340I-8340J-6810D01*
G02X-9310Y1441450I-969J791D01*
G01X-16090D01*
G02X-17060Y1441910I-1J1251D01*
G03X-33740I-8340J-6810D01*
G02X-34710Y1441450I-969J791D01*
G01X-41490D01*
G02X-42460Y1441910I-1J1251D01*
G03X-59140I-8340J-6810D01*
G02X-60110Y1441450I-969J791D01*
G01X-87650D01*
G02X-88900Y1442700I0J1250D01*
G01Y1662450D01*
G02X-87650Y1663700I1250J0D01*
G01X-62270Y1663670D01*
X-61560Y1663030D01*
X-61510Y1662550D01*
G03X-40090Y1662520I10712J1140D01*
G01X-40040Y1663000D01*
X-39330Y1663630D01*
X-36870D01*
X-36160Y1662990D01*
X-36110Y1662520D01*
G03X-14700Y1662490I10707J1175D01*
G01X-14640Y1662970D01*
X-13930Y1663600D01*
X-11460D01*
X-10760Y1662970D01*
G37*
G36*
G01X-63500Y1765300D02*
G02X-76200Y1778000I0J12700D01*
G01Y2147700D01*
G02X-75240Y2148700I1000J1D01*
G03X-53200Y2170740I-960J23000D01*
G01X-53180Y2171150D01*
X-52610Y2171700D01*
X-15590D01*
X-15020Y2171160D01*
X-14990Y2170760D01*
G03X14990I14990J940D01*
G01X15020Y2171160D01*
X15590Y2171700D01*
X35980D01*
G02X36840Y2171220I5J-1001D01*
G01X37870Y2169530D01*
X37880Y2169030D01*
X37760Y2168790D01*
G03X44450Y2157830I6690J-3438D01*
G01X162930D01*
G02X163930Y2156830I0J-1000D01*
G01Y1902380D01*
G02X163640Y1901670I-1001J-5D01*
G01X163530Y1901560D01*
X163380Y1901200D01*
Y1829870D01*
G03X174770Y1823420I7521J0D01*
G01X175000Y1823560D01*
X175540Y1823570D01*
X177290Y1822580D01*
G02X177800Y1821710I-490J-872D01*
G01Y1778000D01*
G02X165100Y1765300I-12700J0D01*
G01X11330D01*
X10760Y1765820D01*
X10730Y1766210D01*
G03X-10730I-10730J-910D01*
G01X-10760Y1765820D01*
X-11330Y1765300D01*
X-14570D01*
X-15140Y1765820D01*
X-15170Y1766210D01*
G03X-35630I-10230J-910D01*
G01X-35660Y1765820D01*
X-36230Y1765300D01*
X-39470D01*
X-40040Y1765820D01*
X-40070Y1766210D01*
G03X-61530I-10730J-910D01*
G01X-61560Y1765820D01*
X-62130Y1765300D01*
X-63500D01*
G37*
%LPC*%
G75*
G36*
G01X410170Y1529510D02*
Y1385140D01*
G03X410700Y1384120I1250J2D01*
G02X402100I-4300J-6170D01*
G03X402630Y1385140I-720J1022D01*
G01Y1529510D01*
G03X402100Y1530530I-1250J-2D01*
G02X410700I4300J6170D01*
G03X410170Y1529510I720J-1022D01*
G37*
G36*
G01X391120Y1425830D02*
Y1385140D01*
G03X391650Y1384120I1250J2D01*
G02X383050I-4300J-6170D01*
G03X383580Y1385140I-720J1022D01*
G01Y1422710D01*
X383480Y1422810D01*
Y1516810D01*
G03X382950Y1517830I-1250J-2D01*
G02X391550I4300J6170D01*
G03X391020Y1516810I720J-1022D01*
G01Y1425930D01*
X391120Y1425830D01*
G37*
G36*
G01X372070Y1548560D02*
Y1385140D01*
G03X372600Y1384120I1250J2D01*
G02X364000I-4300J-6170D01*
G03X364530Y1385140I-720J1022D01*
G01Y1548560D01*
G03X364000Y1549580I-1250J-2D01*
G02X372600I4300J6170D01*
G03X372070Y1548560I720J-1022D01*
G37*
G36*
G01X353020Y1523160D02*
Y1385140D01*
G03X353550Y1384120I1250J2D01*
G02X344950I-4300J-6170D01*
G03X345480Y1385140I-720J1022D01*
G01Y1523160D01*
G03X344950Y1524180I-1250J-2D01*
G02X353550I4300J6170D01*
G03X353020Y1523160I720J-1022D01*
G37*
G36*
G01X848320Y1294560D02*
Y883490D01*
G03X848850Y882470I1250J2D01*
G02X840250I-4300J-6170D01*
G03X840780Y883490I-720J1022D01*
G01Y1294560D01*
G03X840250Y1295580I-1250J-2D01*
G02X848850I4300J6170D01*
G03X848320Y1294560I720J-1022D01*
G37*
G36*
G01X829270Y1143680D02*
Y794590D01*
G03X829800Y793570I1250J2D01*
G02X821200I-4300J-6170D01*
G03X821730Y794590I-720J1022D01*
G01Y1140300D01*
X821550Y1140740D01*
X821480Y1140810D01*
Y1150930D01*
X821660Y1151380D01*
X821730Y1151440D01*
Y1294560D01*
G03X821200Y1295580I-1250J-2D01*
G02X829800I4300J6170D01*
G03X829270Y1294560I720J-1022D01*
G01Y1148580D01*
X829090Y1148130D01*
X829020Y1148070D01*
Y1144190D01*
X829200Y1143750D01*
X829270Y1143680D01*
G37*
G36*
G01X810220Y811960D02*
Y781890D01*
G03X810750Y780870I1250J2D01*
G02X802150I-4300J-6170D01*
G03X802680Y781890I-720J1022D01*
G01Y811960D01*
G03X802150Y812980I-1250J-2D01*
G02Y825320I4300J6170D01*
G03X802680Y826340I-720J1022D01*
G01Y1294560D01*
G03X802150Y1295580I-1250J-2D01*
G02X810750I4300J6170D01*
G03X810220Y1294560I720J-1022D01*
G01Y826340D01*
G03X810750Y825320I1250J2D01*
G02Y812980I-4300J-6170D01*
G03X810220Y811960I720J-1022D01*
G37*
G36*
G01X848320D02*
Y769190D01*
G03X848850Y768170I1250J2D01*
G02X840250I-4300J-6170D01*
G03X840780Y769190I-720J1022D01*
G01Y811960D01*
G03X840250Y812980I-1250J-2D01*
G02X848850I4300J6170D01*
G03X848320Y811960I720J-1022D01*
G37*
G36*
G01X867370D02*
Y756490D01*
G03X867900Y755470I1250J2D01*
G02X859300I-4300J-6170D01*
G03X859830Y756490I-720J1022D01*
G01Y811960D01*
G03X859300Y812980I-1250J-2D01*
G02X867900I4300J6170D01*
G03X867370Y811960I720J-1022D01*
G37*
G36*
G01X886420D02*
Y743790D01*
G03X886950Y742770I1250J2D01*
G02X878350I-4300J-6170D01*
G03X878880Y743790I-720J1022D01*
G01Y811960D01*
G03X878350Y812980I-1250J-2D01*
G02X886950I4300J6170D01*
G03X886420Y811960I720J-1022D01*
G37*
G36*
G01X791170D02*
Y731090D01*
G03X791700Y730070I1250J2D01*
G02X783100I-4300J-6170D01*
G03X783630Y731090I-720J1022D01*
G01Y811960D01*
G03X783100Y812980I-1250J-2D01*
G02Y825320I4300J6170D01*
G03X783630Y826340I-720J1022D01*
G01Y960660D01*
X783480Y960810D01*
Y971190D01*
X783630Y971340D01*
Y1294560D01*
G03X783100Y1295580I-1250J-2D01*
G02X791700I4300J6170D01*
G03X791170Y1294560I720J-1022D01*
G01Y968220D01*
X791020Y968070D01*
Y963930D01*
X791170Y963780D01*
Y826340D01*
G03X791700Y825320I1250J2D01*
G02Y812980I-4300J-6170D01*
G03X791170Y811960I720J-1022D01*
G37*
G36*
G01X772120D02*
Y718390D01*
G03X772650Y717370I1250J2D01*
G02X764050I-4300J-6170D01*
G03X764580Y718390I-720J1022D01*
G01Y811960D01*
G03X764050Y812980I-1250J-2D01*
G02Y825320I4300J6170D01*
G03X764580Y826340I-720J1022D01*
G01Y1294560D01*
G03X764050Y1295580I-1250J-2D01*
G02X772650I4300J6170D01*
G03X772120Y1294560I720J-1022D01*
G01Y826340D01*
G03X772650Y825320I1250J2D01*
G02Y812980I-4300J-6170D01*
G03X772120Y811960I720J-1022D01*
G37*
G36*
G01X1267420Y856410D02*
Y705690D01*
G03X1267950Y704670I1250J2D01*
G02X1259350I-4300J-6170D01*
G03X1259880Y705690I-720J1022D01*
G01Y856410D01*
G03X1259350Y857430I-1250J-2D01*
G02X1267950I4300J6170D01*
G03X1267420Y856410I720J-1022D01*
G37*
G36*
G01X1440270Y662600D02*
X1389840Y713020D01*
G03X1388020Y713780I-1828J-1818D01*
G01X1355180D01*
G02X1348020Y716740I-7J10122D01*
G01X1326340Y738420D01*
G02X1323380Y745580I7162J7153D01*
G01Y919910D01*
G03X1322850Y920930I-1250J-2D01*
G02X1331450I4300J6170D01*
G03X1330920Y919910I720J-1022D01*
G01Y745580D01*
G03X1331680Y743760I2578J8D01*
G01X1353360Y722080D01*
G03X1355180Y721320I1828J1818D01*
G01X1388020D01*
G02X1395180Y718360I7J-10122D01*
G01X1445600Y667930D01*
X1446180Y667750D01*
X1446480Y667800D01*
G02X1440400Y661720I1320J-7400D01*
G01X1440450Y662020D01*
X1440270Y662600D01*
G37*
G36*
G01X1242020Y716710D02*
Y667590D01*
G03X1242550Y666570I1250J2D01*
G02X1233950I-4300J-6170D01*
G03X1234480Y667590I-720J1022D01*
G01Y716710D01*
G03X1233950Y717730I-1250J-2D01*
G02X1242550I4300J6170D01*
G03X1242020Y716710I720J-1022D01*
G37*
G36*
G01X994370Y799260D02*
Y661240D01*
G03X994900Y660220I1250J2D01*
G02X986300I-4300J-6170D01*
G03X986830Y661240I-720J1022D01*
G01Y799260D01*
G03X986300Y800280I-1250J-2D01*
G02X994900I4300J6170D01*
G03X994370Y799260I720J-1022D01*
G37*
G36*
G01X975320D02*
Y661240D01*
G03X975850Y660220I1250J2D01*
G02X967250I-4300J-6170D01*
G03X967780Y661240I-720J1022D01*
G01Y799260D01*
G03X967250Y800280I-1250J-2D01*
G02X975850I4300J6170D01*
G03X975320Y799260I720J-1022D01*
G37*
G36*
G01X956270D02*
Y661240D01*
G03X956800Y660220I1250J2D01*
G02X948200I-4300J-6170D01*
G03X948730Y661240I-720J1022D01*
G01Y799260D01*
G03X948200Y800280I-1250J-2D01*
G02X956800I4300J6170D01*
G03X956270Y799260I720J-1022D01*
G37*
G36*
G01X1417070Y654050D02*
X1383490Y687620D01*
G03X1381670Y688380I-1828J-1818D01*
G01X1329780D01*
G02X1322620Y691340I-7J10122D01*
G01X1300940Y713020D01*
G02X1297980Y720180I7162J7153D01*
G01Y919910D01*
G03X1297450Y920930I-1250J-2D01*
G02X1306050I4300J6170D01*
G03X1305520Y919910I720J-1022D01*
G01Y720180D01*
G03X1306280Y718360I2578J8D01*
G01X1327960Y696680D01*
G03X1329780Y695920I1828J1818D01*
G01X1381670D01*
G02X1388830Y692960I7J-10122D01*
G01X1423210Y658580D01*
G02X1425550Y654900I-7171J-7144D01*
G03X1426110Y654240I1175J430D01*
G02X1416770Y652690I-3713J-6540D01*
G01X1417100Y653060D01*
X1417070Y654050D01*
G37*
G36*
G01X753070Y1243880D02*
Y654890D01*
G03X753600Y653870I1250J2D01*
G02X745000I-4300J-6170D01*
G03X745530Y654890I-720J1022D01*
G01Y1240760D01*
X745480Y1240810D01*
Y1251190D01*
X745530Y1251240D01*
Y1294560D01*
G03X745000Y1295580I-1250J-2D01*
G02X753600I4300J6170D01*
G03X753070Y1294560I720J-1022D01*
G01Y1248120D01*
X753020Y1248070D01*
Y1243930D01*
X753070Y1243880D01*
G37*
G36*
G01X734020Y1294560D02*
Y642190D01*
G03X734550Y641170I1250J2D01*
G02X725950I-4300J-6170D01*
G03X726480Y642190I-720J1022D01*
G01Y1294560D01*
G03X725950Y1295580I-1250J-2D01*
G02X734550I4300J6170D01*
G03X734020Y1294560I720J-1022D01*
G37*
G36*
G01X714970D02*
Y616790D01*
G03X715500Y615770I1250J2D01*
G02X706900I-4300J-6170D01*
G03X707430Y616790I-720J1022D01*
G01Y1294560D01*
G03X706900Y1295580I-1250J-2D01*
G02X715500I4300J6170D01*
G03X714970Y1294560I720J-1022D01*
G37*
G36*
G01X86320Y627810D02*
Y527890D01*
G03X86850Y526870I1250J2D01*
G02X78250I-4300J-6170D01*
G03X78780Y527890I-720J1022D01*
G01Y627810D01*
G03X78250Y628830I-1250J-2D01*
G02X86850I4300J6170D01*
G03X86320Y627810I720J-1022D01*
G37*
G36*
G01X67270Y602410D02*
Y515190D01*
G03X67800Y514170I1250J2D01*
G02X59200I-4300J-6170D01*
G03X59730Y515190I-720J1022D01*
G01Y602410D01*
G03X59200Y603430I-1250J-2D01*
G02X67800I4300J6170D01*
G03X67270Y602410I720J-1022D01*
G37*
G36*
G01X410170Y615110D02*
Y502490D01*
G03X410700Y501470I1250J2D01*
G02X402100I-4300J-6170D01*
G03X402630Y502490I-720J1022D01*
G01Y615110D01*
G03X402100Y616130I-1250J-2D01*
G02X410700I4300J6170D01*
G03X410170Y615110I720J-1022D01*
G37*
G36*
G01X467320Y640510D02*
Y489790D01*
G03X467850Y488770I1250J2D01*
G02X459250I-4300J-6170D01*
G03X459780Y489790I-720J1022D01*
G01Y640510D01*
G03X459250Y641530I-1250J-2D01*
G02X467850I4300J6170D01*
G03X467320Y640510I720J-1022D01*
G37*
G36*
G01X333970Y1510460D02*
Y483440D01*
G03X334500Y482420I1250J2D01*
G02X325900I-4300J-6170D01*
G03X326430Y483440I-720J1022D01*
G01Y1510460D01*
G03X325900Y1511480I-1250J-2D01*
G02X334500I4300J6170D01*
G03X333970Y1510460I720J-1022D01*
G37*
G36*
G01X353020Y1324840D02*
Y470740D01*
G03X353550Y469720I1250J2D01*
G02X344950I-4300J-6170D01*
G03X345480Y470740I-720J1022D01*
G01Y1324840D01*
G03X344950Y1325860I-1250J-2D01*
G02X353550I4300J6170D01*
G03X353020Y1324840I720J-1022D01*
G37*
G36*
G01X372070D02*
Y458040D01*
G03X372600Y457020I1250J2D01*
G02X364000I-4300J-6170D01*
G03X364530Y458040I-720J1022D01*
G01Y1324840D01*
G03X364000Y1325860I-1250J-2D01*
G02X372600I4300J6170D01*
G03X372070Y1324840I720J-1022D01*
G37*
G36*
G01X1184870Y754810D02*
Y362790D01*
G03X1185400Y361770I1250J2D01*
G02X1176800I-4300J-6170D01*
G03X1177330Y362790I-720J1022D01*
G01Y754810D01*
G03X1176800Y755830I-1250J-2D01*
G02X1185400I4300J6170D01*
G03X1184870Y754810I720J-1022D01*
G37*
G36*
G01X1165820Y526210D02*
Y261190D01*
G03X1166350Y260170I1250J2D01*
G02X1157750I-4300J-6170D01*
G03X1158280Y261190I-720J1022D01*
G01Y526210D01*
G03X1157750Y527230I-1250J-2D01*
G02Y539570I4300J6170D01*
G03X1158280Y540590I-720J1022D01*
G01Y767510D01*
G03X1157750Y768530I-1250J-2D01*
G02X1166350I4300J6170D01*
G03X1165820Y767510I720J-1022D01*
G01Y540590D01*
G03X1166350Y539570I1250J2D01*
G02Y527230I-4300J-6170D01*
G03X1165820Y526210I720J-1022D01*
G37*
G36*
G01X1203920Y450010D02*
Y235790D01*
G03X1204450Y234770I1250J2D01*
G02X1195850I-4300J-6170D01*
G03X1196380Y235790I-720J1022D01*
G01Y450010D01*
G03X1195850Y451030I-1250J-2D01*
G02Y463370I4300J6170D01*
G03X1196380Y464390I-720J1022D01*
G01Y742110D01*
G03X1195850Y743130I-1250J-2D01*
G02X1204450I4300J6170D01*
G03X1203920Y742110I720J-1022D01*
G01Y464390D01*
G03X1204450Y463370I1250J2D01*
G02Y451030I-4300J-6170D01*
G03X1203920Y450010I720J-1022D01*
G37*
G36*
G01X1146770Y627810D02*
Y159590D01*
G03X1147300Y158570I1250J2D01*
G02X1138700I-4300J-6170D01*
G03X1139230Y159590I-720J1022D01*
G01Y627810D01*
G03X1138700Y628830I-1250J-2D01*
G02Y641170I4300J6170D01*
G03X1139230Y642190I-720J1022D01*
G01Y780210D01*
G03X1138700Y781230I-1250J-2D01*
G02X1147300I4300J6170D01*
G03X1146770Y780210I720J-1022D01*
G01Y642190D01*
G03X1147300Y641170I1250J2D01*
G02Y628830I-4300J-6170D01*
G03X1146770Y627810I720J-1022D01*
G37*
G36*
G01X1222970Y424610D02*
Y134190D01*
G03X1223500Y133170I1250J2D01*
G02X1214900I-4300J-6170D01*
G03X1215430Y134190I-720J1022D01*
G01Y424610D01*
G03X1214900Y425630I-1250J-2D01*
G02Y437970I4300J6170D01*
G03X1215430Y438990I-720J1022D01*
G01Y551610D01*
G03X1214900Y552630I-1250J-2D01*
G02Y564970I4300J6170D01*
G03X1215430Y565990I-720J1022D01*
G01Y729410D01*
G03X1214900Y730430I-1250J-2D01*
G02X1223500I4300J6170D01*
G03X1222970Y729410I720J-1022D01*
G01Y565990D01*
G03X1223500Y564970I1250J2D01*
G02Y552630I-4300J-6170D01*
G03X1222970Y551610I720J-1022D01*
G01Y438990D01*
G03X1223500Y437970I1250J2D01*
G02Y425630I-4300J-6170D01*
G03X1222970Y424610I720J-1022D01*
G37*
G36*
G01X-34420Y10270D02*
X-16380D01*
G02X-15130Y9020I0J-1250D01*
G01Y-9020D01*
G02X-16380Y-10270I-1250J0D01*
G01X-34420D01*
G02X-35670Y-9020I0J1250D01*
G01Y9020D01*
G02X-34420Y10270I1250J0D01*
G37*
G36*
G01X-60320Y10770D02*
X-41280D01*
G02X-40030Y9520I0J-1250D01*
G01Y-9520D01*
G02X-41280Y-10770I-1250J0D01*
G01X-60320D01*
G02X-61570Y-9520I0J1250D01*
G01Y9520D01*
G02X-60320Y10770I1250J0D01*
G37*
G36*
G01X-34420Y238870D02*
X-16380D01*
G02X-15130Y237620I0J-1250D01*
G01Y219580D01*
G02X-16380Y218330I-1250J0D01*
G01X-34420D01*
G02X-35670Y219580I0J1250D01*
G01Y237620D01*
G02X-34420Y238870I1250J0D01*
G37*
G36*
G01X-60320Y239370D02*
X-41280D01*
G02X-40030Y238120I0J-1250D01*
G01Y219080D01*
G02X-41280Y217830I-1250J0D01*
G01X-60320D01*
G02X-61570Y219080I0J1250D01*
G01Y238120D01*
G02X-60320Y239370I1250J0D01*
G37*
G36*
G01X-34420Y492870D02*
X-16380D01*
G02X-15130Y491620I0J-1250D01*
G01Y473580D01*
G02X-16380Y472330I-1250J0D01*
G01X-34420D01*
G02X-35670Y473580I0J1250D01*
G01Y491620D01*
G02X-34420Y492870I1250J0D01*
G37*
G36*
G01X-60320Y493370D02*
X-41280D01*
G02X-40030Y492120I0J-1250D01*
G01Y473080D01*
G02X-41280Y471830I-1250J0D01*
G01X-60320D01*
G02X-61570Y473080I0J1250D01*
G01Y492120D01*
G02X-60320Y493370I1250J0D01*
G37*
G36*
G01X-34920Y1344270D02*
X-15880D01*
G02X-14630Y1343020I0J-1250D01*
G01Y1323980D01*
G02X-15880Y1322730I-1250J0D01*
G01X-34920D01*
G02X-36170Y1323980I0J1250D01*
G01Y1343020D01*
G02X-34920Y1344270I1250J0D01*
G37*
G36*
G01X-60320D02*
X-41280D01*
G02X-40030Y1343020I0J-1250D01*
G01Y1323980D01*
G02X-41280Y1322730I-1250J0D01*
G01X-60320D01*
G02X-61570Y1323980I0J1250D01*
G01Y1343020D01*
G02X-60320Y1344270I1250J0D01*
G37*
G36*
G01X-9520Y10770D02*
X9520D01*
G02X10770Y9520I0J-1250D01*
G01Y-9520D01*
G02X9520Y-10770I-1250J0D01*
G01X-9520D01*
G02X-10770Y-9520I0J1250D01*
G01Y9520D01*
G02X-9520Y10770I1250J0D01*
G37*
G36*
G01Y239370D02*
X9520D01*
G02X10770Y238120I0J-1250D01*
G01Y219080D01*
G02X9520Y217830I-1250J0D01*
G01X-9520D01*
G02X-10770Y219080I0J1250D01*
G01Y238120D01*
G02X-9520Y239370I1250J0D01*
G37*
G36*
G01Y493370D02*
X9520D01*
G02X10770Y492120I0J-1250D01*
G01Y473080D01*
G02X9520Y471830I-1250J0D01*
G01X-9520D01*
G02X-10770Y473080I0J1250D01*
G01Y492120D01*
G02X-9520Y493370I1250J0D01*
G37*
G36*
G01Y1344270D02*
X9520D01*
G02X10770Y1343020I0J-1250D01*
G01Y1323980D01*
G02X9520Y1322730I-1250J0D01*
G01X-9520D01*
G02X-10770Y1323980I0J1250D01*
G01Y1343020D01*
G02X-9520Y1344270I1250J0D01*
G37*
G36*
G01X244480Y1693520D02*
X263520D01*
G02X264770Y1692270I0J-1250D01*
G01Y1673230D01*
G02X263520Y1671980I-1250J0D01*
G01X244480D01*
G02X243230Y1673230I0J1250D01*
G01Y1692270D01*
G02X244480Y1693520I1250J0D01*
G37*
G36*
G01X606430Y1598270D02*
X625470D01*
G02X626720Y1597020I0J-1250D01*
G01Y1577980D01*
G02X625470Y1576730I-1250J0D01*
G01X606430D01*
G02X605180Y1577980I0J1250D01*
G01Y1597020D01*
G02X606430Y1598270I1250J0D01*
G37*
G36*
G01X1368430Y163170D02*
X1387470D01*
G02X1388720Y161920I0J-1250D01*
G01Y142880D01*
G02X1387470Y141630I-1250J0D01*
G01X1368430D01*
G02X1367180Y142880I0J1250D01*
G01Y161920D01*
G02X1368430Y163170I1250J0D01*
G37*
G36*
G01Y264770D02*
X1387470D01*
G02X1388720Y263520I0J-1250D01*
G01Y244480D01*
G02X1387470Y243230I-1250J0D01*
G01X1368430D01*
G02X1367180Y244480I0J1250D01*
G01Y263520D01*
G02X1368430Y264770I1250J0D01*
G37*
G36*
G01Y366370D02*
X1387470D01*
G02X1388720Y365120I0J-1250D01*
G01Y346080D01*
G02X1387470Y344830I-1250J0D01*
G01X1368430D01*
G02X1367180Y346080I0J1250D01*
G01Y365120D01*
G02X1368430Y366370I1250J0D01*
G37*
G36*
G01Y467970D02*
X1387470D01*
G02X1388720Y466720I0J-1250D01*
G01Y447680D01*
G02X1387470Y446430I-1250J0D01*
G01X1368430D01*
G02X1367180Y447680I0J1250D01*
G01Y466720D01*
G02X1368430Y467970I1250J0D01*
G37*
G36*
G01Y569570D02*
X1387470D01*
G02X1388720Y568320I0J-1250D01*
G01Y549280D01*
G02X1387470Y548030I-1250J0D01*
G01X1368430D01*
G02X1367180Y549280I0J1250D01*
G01Y568320D01*
G02X1368430Y569570I1250J0D01*
G37*
G36*
G01Y671170D02*
X1387470D01*
G02X1388720Y669920I0J-1250D01*
G01Y650880D01*
G02X1387470Y649630I-1250J0D01*
G01X1368430D01*
G02X1367180Y650880I0J1250D01*
G01Y669920D01*
G02X1368430Y671170I1250J0D01*
G37*
G36*
G01X9260Y691310D02*
X9420Y691020D01*
G02X-9420I-9420J-5220D01*
G01X-9260Y691310D01*
X-9270Y691970D01*
X-10530Y694110D01*
G03X-11610Y694730I-1079J-629D01*
G01X-14370D01*
G03X-15450Y694100I5J-1249D01*
G01X-16700Y691930D01*
Y691270D01*
X-16530Y690970D01*
G02X-33050Y692650I-8871J-5171D01*
G01X-32900Y692820D01*
X-32740Y693240D01*
Y693480D01*
G03X-33990Y694730I-1250J0D01*
G01X-35470D01*
G02X-42630Y697690I-7J10122D01*
G01X-46010Y701070D01*
X-46710Y701230D01*
X-47060Y701100D01*
G02X-40700Y707460I-3740J10100D01*
G01X-40830Y707110D01*
X-40670Y706410D01*
X-37290Y703030D01*
G03X-35470Y702270I1828J1818D01*
G01X-33990D01*
G03X-32740Y703520I0J1250D01*
G01Y703760D01*
X-32900Y704180D01*
X-33050Y704350D01*
G02Y718050I7650J6850D01*
G01X-32900Y718220D01*
X-32740Y718640D01*
Y718880D01*
G03X-33990Y720130I-1250J0D01*
G01X-35470D01*
G02X-42630Y723090I-7J10122D01*
G01X-45000Y725460D01*
G03X-45880Y725830I-887J-878D01*
G01X-60320D01*
G02X-61570Y727080I0J1250D01*
G01Y746120D01*
G02X-60320Y747370I1250J0D01*
G01X-44520D01*
G03X-43360Y748140I5J1251D01*
G01X-43220Y748500D01*
X-43360Y749230D01*
X-46010Y751870D01*
X-46710Y752030D01*
X-47060Y751900D01*
G02X-40700Y758260I-3740J10100D01*
G01X-40830Y757910D01*
X-40670Y757210D01*
X-37290Y753830D01*
G03X-35470Y753070I1828J1818D01*
G01X-33990D01*
G03X-32740Y754320I0J1250D01*
G01Y754560D01*
X-32900Y754980D01*
X-33050Y755150D01*
G02Y768850I7650J6850D01*
G01X-32900Y769020D01*
X-32740Y769440D01*
Y769680D01*
G03X-33990Y770930I-1250J0D01*
G01X-35470D01*
G02X-42630Y773890I-7J10122D01*
G01X-46010Y777270D01*
X-46710Y777430D01*
X-47060Y777300D01*
G02X-40700Y783660I-3740J10100D01*
G01X-40830Y783310D01*
X-40670Y782610D01*
X-37290Y779230D01*
G03X-35470Y778470I1828J1818D01*
G01X-33990D01*
G03X-32740Y779720I0J1250D01*
G01Y779960D01*
X-32900Y780380D01*
X-33050Y780550D01*
G02X-16530Y782230I7649J6851D01*
G01X-16700Y781930D01*
Y781270D01*
X-15450Y779100D01*
G03X-14370Y778470I1085J619D01*
G01X-11610D01*
G03X-10530Y779090I1J1249D01*
G01X-9270Y781230D01*
X-9260Y781890D01*
X-9420Y782180D01*
G02X9790Y791900I9422J5221D01*
G01X9940Y791560D01*
X10550Y791170D01*
X72400D01*
G03X74220Y791930I-8J2578D01*
G01X76850Y794560D01*
G02X81800Y797280I7157J-7160D01*
G03X82580Y797820I-268J1220D01*
G02X91470Y786680I6322J-4072D01*
G01X91230Y786590D01*
X90860Y786250D01*
X89920Y784130D01*
X89910Y783630D01*
X90010Y783390D01*
G02X90250Y778370I-6960J-2848D01*
G01X90180Y778140D01*
X90210Y777680D01*
X91150Y775730D01*
X91490Y775410D01*
X91710Y775330D01*
G02X91260Y761210I-2808J-6978D01*
G01X91020Y761130D01*
X90650Y760820D01*
X89630Y758770D01*
X89600Y758290D01*
X89680Y758040D01*
G02X81200Y748250I-7130J-2391D01*
G03X80160Y747970I-227J-1229D01*
G02X73570Y745530I-6590J7680D01*
G01X12020D01*
G03X10770Y744280I0J-1250D01*
G01Y741620D01*
G03X12020Y740370I1250J0D01*
G01X79920D01*
G02X86510Y737930I0J-10120D01*
G03X87550Y737650I813J949D01*
G02X91470Y723180I1359J-7398D01*
G01X91230Y723090D01*
X90860Y722750D01*
X89920Y720630D01*
X89910Y720130D01*
X90010Y719890D01*
G02X90180Y714660I-6960J-2844D01*
G01X90100Y714410D01*
X90130Y713930D01*
X91150Y711880D01*
X91520Y711570D01*
X91760Y711490D01*
G02X91970Y697280I-2359J-7141D01*
G01X91730Y697190D01*
X91360Y696850D01*
X90420Y694730D01*
X90410Y694230D01*
X90510Y693990D01*
G02X77380Y686850I-6963J-2838D01*
G03X76360Y687380I-1022J-720D01*
G01X73480D01*
G02X66320Y690340I-7J10122D01*
G01X62690Y693970D01*
G03X60870Y694730I-1828J-1818D01*
G01X11610D01*
G03X10530Y694110I-1J-1249D01*
G01X9270Y691970D01*
X9260Y691310D01*
G37*
G36*
G01X530730Y1051670D02*
X548770D01*
G02X550020Y1050420I0J-1250D01*
G01Y1032380D01*
G02X548770Y1031130I-1250J0D01*
G01X530730D01*
G02X529480Y1032380I0J1250D01*
G01Y1050420D01*
G02X530730Y1051670I1250J0D01*
G37*
G36*
G01X1102230Y861170D02*
X1120270D01*
G02X1121520Y859920I0J-1250D01*
G01Y841880D01*
G02X1120270Y840630I-1250J0D01*
G01X1102230D01*
G02X1100980Y841880I0J1250D01*
G01Y859920D01*
G02X1102230Y861170I1250J0D01*
G37*
G36*
G01X-34920Y1572870D02*
X-15880D01*
G02X-14630Y1571620I0J-1250D01*
G01Y1552580D01*
G02X-15880Y1551330I-1250J0D01*
G01X-34920D01*
G02X-36170Y1552580I0J1250D01*
G01Y1571620D01*
G02X-34920Y1572870I1250J0D01*
G37*
G36*
G01X-60320D02*
X-41280D01*
G02X-40030Y1571620I0J-1250D01*
G01Y1552580D01*
G02X-41280Y1551330I-1250J0D01*
G01X-60320D01*
G02X-61570Y1552580I0J1250D01*
G01Y1571620D01*
G02X-60320Y1572870I1250J0D01*
G37*
G36*
G01X-9520D02*
X9520D01*
G02X10770Y1571620I0J-1250D01*
G01Y1552580D01*
G02X9520Y1551330I-1250J0D01*
G01X-9520D01*
G02X-10770Y1552580I0J1250D01*
G01Y1571620D01*
G02X-9520Y1572870I1250J0D01*
G37*
G36*
G01X-34670Y1826370D02*
X-16130D01*
G02X-15130Y1825370I0J-1000D01*
G01Y1806830D01*
G02X-16130Y1805830I-1000J0D01*
G01X-34670D01*
G02X-35670Y1806830I0J1000D01*
G01Y1825370D01*
G02X-34670Y1826370I1000J0D01*
G37*
G36*
G01X-60570Y1826870D02*
X-41030D01*
G02X-40030Y1825870I0J-1000D01*
G01Y1806330D01*
G02X-41030Y1805330I-1000J0D01*
G01X-60570D01*
G02X-61570Y1806330I0J1000D01*
G01Y1825870D01*
G02X-60570Y1826870I1000J0D01*
G37*
G36*
G01X-34670Y2080370D02*
X-16130D01*
G02X-15130Y2079370I0J-1000D01*
G01Y2060830D01*
G02X-16130Y2059830I-1000J0D01*
G01X-34670D01*
G02X-35670Y2060830I0J1000D01*
G01Y2079370D01*
G02X-34670Y2080370I1000J0D01*
G37*
G36*
G01X-60570Y2080870D02*
X-41030D01*
G02X-40030Y2079870I0J-1000D01*
G01Y2060330D01*
G02X-41030Y2059330I-1000J0D01*
G01X-60570D01*
G02X-61570Y2060330I0J1000D01*
G01Y2079870D01*
G02X-60570Y2080870I1000J0D01*
G37*
G36*
G01X-9770Y1826870D02*
X9770D01*
G02X10770Y1825870I0J-1000D01*
G01Y1806330D01*
G02X9770Y1805330I-1000J0D01*
G01X-9770D01*
G02X-10770Y1806330I0J1000D01*
G01Y1825870D01*
G02X-9770Y1826870I1000J0D01*
G37*
G36*
G01Y2080870D02*
X9770D01*
G02X10770Y2079870I0J-1000D01*
G01Y2060330D01*
G02X9770Y2059330I-1000J0D01*
G01X-9770D01*
G02X-10770Y2060330I0J1000D01*
G01Y2079870D01*
G02X-9770Y2080870I1000J0D01*
G37*
G36*
G01X60580Y2124820D02*
X79120D01*
G02X80120Y2123820I0J-1000D01*
G01Y2105280D01*
G02X79120Y2104280I-1000J0D01*
G01X60580D01*
G02X59580Y2105280I0J1000D01*
G01Y2123820D01*
G02X60580Y2124820I1000J0D01*
G37*
G54D25*
X641350Y1485900D03*
Y1511300D03*
Y1536700D03*
Y1562100D03*
X539750Y1016000D03*
X1111250Y876300D03*
X69850Y2139950D03*
G54D23*
X0Y-50800D03*
G54D26*
X615950Y1485900D03*
Y1511300D03*
Y1536700D03*
Y1562100D03*
X641350Y1587500D03*
X1377950Y127000D03*
Y228600D03*
Y330200D03*
Y431800D03*
Y533400D03*
Y635000D03*
G54D27*
X1016000Y927100D03*
X1111250Y38100D03*
X1263650Y965200D03*
X1225550Y1123950D03*
G54D21*
X-25400Y25400D03*
Y76200D03*
Y50800D03*
Y177800D03*
Y152400D03*
Y127000D03*
Y203200D03*
Y254000D03*
Y330200D03*
Y304800D03*
Y279400D03*
X-50800D03*
X-25400Y406400D03*
Y381000D03*
Y355600D03*
Y457200D03*
Y431800D03*
Y558800D03*
Y533400D03*
Y508000D03*
Y635000D03*
Y609600D03*
Y584200D03*
Y660400D03*
X0Y279400D03*
X-50800Y1638300D03*
X0D03*
X-25400Y1841500D03*
Y1790700D03*
Y1917700D03*
Y1892300D03*
Y1866900D03*
Y1968500D03*
Y1943100D03*
X-50800Y1968500D03*
X-25400Y2044700D03*
Y2019300D03*
Y2120900D03*
Y2095500D03*
X0Y1968500D03*
G54D24*
X584200Y1371600D03*
Y1403350D03*
X1016000Y977900D03*
X1111250Y107950D03*
X1104900Y1238250D03*
Y1289050D03*
X1155700Y1123950D03*
X1187450D03*
X1263650Y996950D03*
X1054100Y927100D03*
G54D22*
X-50800Y25400D03*
X-25400Y101600D03*
X-50800D03*
Y76200D03*
Y50800D03*
Y177800D03*
Y152400D03*
Y127000D03*
Y203200D03*
Y254000D03*
Y330200D03*
Y304800D03*
Y406400D03*
Y381000D03*
Y355600D03*
Y457200D03*
Y431800D03*
Y558800D03*
Y533400D03*
Y508000D03*
Y635000D03*
Y609600D03*
Y584200D03*
Y685800D03*
Y660400D03*
X-25400Y1358900D03*
X-50800D03*
X0Y25400D03*
Y101600D03*
Y76200D03*
Y50800D03*
Y177800D03*
Y152400D03*
Y127000D03*
Y203200D03*
Y254000D03*
Y330200D03*
Y304800D03*
Y406400D03*
Y381000D03*
Y355600D03*
Y457200D03*
Y431800D03*
Y558800D03*
Y533400D03*
Y508000D03*
Y635000D03*
Y609600D03*
Y584200D03*
Y660400D03*
Y1358900D03*
X-25400Y1460500D03*
X-50800D03*
X-25400Y1536700D03*
Y1511300D03*
Y1485900D03*
X-50800Y1536700D03*
Y1511300D03*
Y1485900D03*
X-25400Y1612900D03*
Y1587500D03*
X-50800Y1612900D03*
Y1587500D03*
X-25400Y1638300D03*
X0Y1460500D03*
Y1536700D03*
Y1511300D03*
Y1485900D03*
Y1612900D03*
Y1587500D03*
X127000Y1682750D03*
X-50800Y1841500D03*
Y1790700D03*
Y1917700D03*
Y1892300D03*
Y1866900D03*
X-25400Y1993900D03*
X-50800D03*
Y1943100D03*
Y2044700D03*
Y2019300D03*
Y2120900D03*
Y2095500D03*
X0Y1841500D03*
Y1790700D03*
Y1917700D03*
Y1892300D03*
Y1866900D03*
Y1993900D03*
Y1943100D03*
Y2044700D03*
Y2019300D03*
Y2120900D03*
Y2095500D03*
G54D20*
X330200Y1927225D03*
%LPD*%
G75*
G54D10*
X-76200Y-50800D03*
Y838200D03*
Y1282700D03*
Y2171700D03*
G54D11*
X-25400Y25400D03*
X-50800D03*
X-25400Y101600D03*
Y76200D03*
Y50800D03*
X-50800Y101600D03*
Y76200D03*
Y50800D03*
X-25400Y177800D03*
Y152400D03*
Y127000D03*
X-50800Y177800D03*
Y152400D03*
Y127000D03*
X-25400Y203200D03*
Y254000D03*
X-50800Y203200D03*
Y254000D03*
X-25400Y330200D03*
Y304800D03*
Y279400D03*
X-50800Y330200D03*
Y304800D03*
Y279400D03*
X-25400Y406400D03*
Y381000D03*
Y355600D03*
X-50800Y406400D03*
Y381000D03*
Y355600D03*
X-25400Y457200D03*
Y431800D03*
X-50800Y457200D03*
Y431800D03*
X-25400Y558800D03*
Y533400D03*
Y508000D03*
X-50800Y558800D03*
Y533400D03*
Y508000D03*
X-25400Y635000D03*
Y609600D03*
Y584200D03*
X-50800Y635000D03*
Y609600D03*
Y584200D03*
X-25400Y711200D03*
Y685800D03*
Y660400D03*
X-50800Y711200D03*
Y685800D03*
Y660400D03*
X-25400Y787400D03*
Y762000D03*
X-50800Y787400D03*
Y762000D03*
X-25400Y1384300D03*
Y1358900D03*
X-50800Y1384300D03*
Y1358900D03*
X-25400Y1460500D03*
Y1435100D03*
Y1409700D03*
X-50800Y1460500D03*
Y1435100D03*
Y1409700D03*
X-25400Y1536700D03*
Y1511300D03*
Y1485900D03*
X-50800Y1536700D03*
Y1511300D03*
Y1485900D03*
X-25400Y1612900D03*
Y1587500D03*
X-50800Y1612900D03*
Y1587500D03*
X-25400Y1689100D03*
Y1663700D03*
Y1638300D03*
X-50800Y1689100D03*
Y1663700D03*
Y1638300D03*
X-25400Y1765300D03*
Y1739900D03*
Y1714500D03*
X-50800Y1765300D03*
Y1739900D03*
Y1714500D03*
X-25400Y1841500D03*
Y1790700D03*
X-50800Y1841500D03*
Y1790700D03*
X-25400Y1917700D03*
Y1892300D03*
Y1866900D03*
X-50800Y1917700D03*
Y1892300D03*
Y1866900D03*
X-25400Y1993900D03*
Y1968500D03*
Y1943100D03*
X-50800Y1993900D03*
Y1968500D03*
Y1943100D03*
X-25400Y2044700D03*
Y2019300D03*
X-50800Y2044700D03*
Y2019300D03*
X-25400Y2120900D03*
Y2095500D03*
X-50800Y2120900D03*
Y2095500D03*
X0Y25400D03*
Y101600D03*
Y76200D03*
Y50800D03*
Y177800D03*
Y152400D03*
Y127000D03*
Y203200D03*
Y254000D03*
Y330200D03*
Y304800D03*
Y279400D03*
Y406400D03*
Y381000D03*
Y355600D03*
Y457200D03*
Y431800D03*
Y558800D03*
Y533400D03*
Y508000D03*
Y635000D03*
Y609600D03*
Y584200D03*
Y711200D03*
Y685800D03*
Y660400D03*
Y787400D03*
Y762000D03*
Y1384300D03*
Y1358900D03*
Y1460500D03*
Y1435100D03*
Y1409700D03*
Y1536700D03*
Y1511300D03*
Y1485900D03*
Y1612900D03*
Y1587500D03*
Y1689100D03*
Y1663700D03*
Y1638300D03*
Y1765300D03*
Y1739900D03*
Y1714500D03*
Y1841500D03*
Y1790700D03*
Y1917700D03*
Y1892300D03*
Y1866900D03*
Y1993900D03*
Y1968500D03*
Y1943100D03*
Y2044700D03*
Y2019300D03*
Y2120900D03*
Y2095500D03*
X127000Y1682750D03*
X177800D03*
X228600D03*
G54D12*
X-25400Y0D03*
X-50800D03*
X-25400Y228600D03*
X-50800D03*
X-25400Y482600D03*
X-50800D03*
X-25400Y736600D03*
X-50800D03*
X-25400Y1333500D03*
X-50800D03*
X-25400Y1562100D03*
X-50800D03*
X-25400Y1816100D03*
X-50800D03*
X-25400Y2070100D03*
X-50800D03*
X0Y0D03*
Y228600D03*
Y482600D03*
Y736600D03*
Y1333500D03*
Y1562100D03*
Y1816100D03*
Y2070100D03*
X69850Y2114550D03*
X254000Y1682750D03*
X539750Y1041400D03*
X615950Y1587500D03*
X1111250Y850900D03*
X1377950Y152400D03*
Y254000D03*
Y355600D03*
Y457200D03*
Y558800D03*
Y660400D03*
Y762000D03*
Y863600D03*
G54D13*
G01X171450Y2119830D02*
Y2159000D01*
G03X165100Y2165350I-6350J0D01*
G01X44450D01*
G01X170900Y1887020D02*
Y1829870D01*
G01X171450Y1944170D02*
Y1898850D01*
X170900Y1898300D01*
Y1887020D01*
G01X171450Y2005530D02*
Y1944170D01*
G01Y2062680D02*
Y2005530D01*
G01Y2119830D02*
Y2062680D01*
G01X330200Y1790700D02*
Y1962150D01*
G01D02*
Y2019300D01*
G01D02*
Y2063750D01*
X-18650Y-20270D03*
X-78900Y6100D03*
Y107700D03*
Y209300D03*
Y260950D03*
Y362550D03*
Y464150D03*
Y565750D03*
Y667350D03*
Y768950D03*
X-66700Y869810D03*
X-78900Y970680D03*
Y1072280D03*
X-82330Y1226600D03*
X-78900Y1173880D03*
X-82330Y1379000D03*
X-82550Y1447800D03*
Y1543050D03*
Y1657350D03*
X-69850Y1778000D03*
Y1905000D03*
Y2032000D03*
Y2139950D03*
X-44450Y2165350D03*
X0Y-50800D03*
X20590Y73450D03*
X25400Y203200D03*
Y241300D03*
X60590Y244640D03*
X19430Y337530D03*
X25370Y438950D03*
X-6350Y1073150D03*
X9910Y1223230D03*
X31970Y1379000D03*
X25620Y1334550D03*
X12700Y1447800D03*
Y1524000D03*
X50800Y1619250D03*
X38100Y1593850D03*
X57150Y1670050D03*
X31750D03*
Y1695450D03*
X19050Y1771650D03*
X12700Y1955800D03*
X61050Y1972400D03*
X25400Y2032000D03*
Y2139950D03*
X0Y2171700D03*
X44450Y2165350D03*
X25400D03*
X71970Y-66200D03*
X122000Y148000D03*
X75740Y158780D03*
X132430Y172790D03*
X135590Y329980D03*
X126910Y435330D03*
X63500Y508000D03*
X127000Y495300D03*
X95470Y534450D03*
X82550Y520700D03*
X63500Y609600D03*
X95470Y597950D03*
X82550Y635000D03*
X89400Y704350D03*
X83550Y691150D03*
X88900Y730250D03*
X83050Y717050D03*
Y780550D03*
X82550Y755650D03*
X88900Y768350D03*
Y793750D03*
X78810Y871770D03*
X98630Y973370D03*
X98880Y1074970D03*
X111510Y1223230D03*
X82770Y1334550D03*
X127000Y1390650D03*
X69850Y1447800D03*
X114300Y1466850D03*
X82550Y1524000D03*
X101600Y1574800D03*
Y1695450D03*
X76200Y1657350D03*
X63500Y1771650D03*
Y1803400D03*
Y1854200D03*
Y1828800D03*
Y1930400D03*
Y1905000D03*
Y1879600D03*
Y1955800D03*
Y2032000D03*
X120650Y2044700D03*
X101600Y2076450D03*
X120650Y2146300D03*
X173570Y-66200D03*
X147580Y86940D03*
X204270Y100950D03*
X198610Y250290D03*
X203420Y559850D03*
X153200Y575500D03*
X197070Y648750D03*
X195200Y685800D03*
X196850Y800100D03*
X180410Y871770D03*
X200220Y971420D03*
X200470Y1073020D03*
X197070Y1207550D03*
X200720Y1174620D03*
X165100Y1371600D03*
Y1384300D03*
Y1447800D03*
X139700Y1403350D03*
X165100Y1460500D03*
X177800Y1479550D03*
X139700Y1524000D03*
X165100Y1504950D03*
Y1568450D03*
X177800Y1593850D03*
X165100Y1606550D03*
Y1581150D03*
X177800Y1638300D03*
X165100Y1771650D03*
X170900Y1829870D03*
X152400Y1828800D03*
X170900Y1887020D03*
X152400Y1885950D03*
Y1917700D03*
X171450Y1944170D03*
Y2005530D03*
X152400Y2006600D03*
X171450Y2062680D03*
X152400Y2063750D03*
X171450Y2119830D03*
X152400Y2120900D03*
X275170Y-66200D03*
X219420Y15100D03*
X276120Y29110D03*
X240000Y30000D03*
X270460Y178450D03*
X237040Y335480D03*
X228490Y437080D03*
X254000Y546100D03*
X247870Y699550D03*
X254530Y660400D03*
X247870Y807500D03*
X251990Y834000D03*
X249660Y969350D03*
X249770Y1070950D03*
X247870Y1245650D03*
X249880Y1172550D03*
X279400Y1358900D03*
Y1479550D03*
Y1593850D03*
X285750Y1701800D03*
Y1657350D03*
X279400Y1638300D03*
X260350Y1771650D03*
X258460Y1831760D03*
Y1889000D03*
Y2003480D03*
Y1945400D03*
Y2060720D03*
Y2117960D03*
X260350Y2190750D03*
X295830Y-51870D03*
X338000Y-28000D03*
X342300Y106610D03*
X338640Y335480D03*
X330090Y437080D03*
X330200Y476250D03*
X349250Y463550D03*
X298450Y533400D03*
X311150Y488950D03*
X339500Y597200D03*
X358500D03*
X320500D03*
X298450Y596900D03*
X339500Y660200D03*
Y685200D03*
X298450Y660400D03*
Y685800D03*
X320000Y840000D03*
X293820Y801170D03*
X298450Y933450D03*
X358000Y922000D03*
X340000Y1018000D03*
X320000Y1158000D03*
X340000Y1246000D03*
X298670Y1245650D03*
X320000Y1332000D03*
X298450Y1333500D03*
X292100Y1384300D03*
X349250Y1377950D03*
Y1332030D03*
X294500Y1475200D03*
X320000Y1460000D03*
X298450Y1460500D03*
X330200Y1543050D03*
X358000Y1494000D03*
X292100Y1504950D03*
X330200Y1517650D03*
X311150Y1543050D03*
X349250Y1530350D03*
X323850Y1568450D03*
X291370D03*
X323850Y1638300D03*
X342900Y1733550D03*
X361950Y1752600D03*
X337320Y1773180D03*
X330200Y1790700D03*
X349250Y1860550D03*
Y1917700D03*
Y2000250D03*
Y1943100D03*
X330200Y1962150D03*
X349250Y2063750D03*
X330200Y2019300D03*
Y2063750D03*
X355600Y2146300D03*
X376770Y-66200D03*
X397430Y-51870D03*
X371720Y-5280D03*
X443380Y96320D03*
X387390Y230950D03*
X421450Y481530D03*
X368300Y450850D03*
X381000Y495300D03*
Y533400D03*
X419100D03*
X406400Y495300D03*
X381000Y596900D03*
X406400Y622300D03*
X381000Y660400D03*
Y685800D03*
X425670Y661450D03*
X395420Y801170D03*
X405180Y1023610D03*
X381000Y1104900D03*
X378000Y1246000D03*
X425370Y1242280D03*
X388000Y1330800D03*
X427730Y1368040D03*
X368300Y1377950D03*
X387350D03*
X406400D03*
X368300Y1332030D03*
X396000Y1428000D03*
X378000Y1448000D03*
X431800Y1439800D03*
X396100Y1510000D03*
X387250Y1524000D03*
X406400Y1536700D03*
X387350Y1555750D03*
X425450Y1562100D03*
X368300Y1555750D03*
X387350Y1689100D03*
Y1638300D03*
X406400Y1733550D03*
X387350Y1752600D03*
X438920Y1773180D03*
X426140Y1829870D03*
X428020Y1887020D03*
X368300Y2190750D03*
X478370Y-66200D03*
X499030Y-51870D03*
X473320Y-5280D03*
X483480Y197920D03*
X483870Y262810D03*
X463550Y482600D03*
X476250Y533400D03*
X450850Y596900D03*
X476250D03*
X463550Y647700D03*
X497020Y801170D03*
X447770Y931370D03*
X471830Y1140680D03*
X510280Y1368040D03*
X469930Y1332790D03*
X471180Y1404320D03*
X513380Y1449080D03*
X468620Y1491280D03*
X495300Y1568450D03*
X457200Y1689100D03*
X495300Y1638300D03*
X508000Y1974850D03*
X469900Y2032000D03*
X477850Y2128320D03*
X490180Y2187100D03*
X579970Y-66200D03*
X548000Y-28000D03*
X574920Y-5280D03*
X544980Y96320D03*
X585080Y197920D03*
X563000Y367230D03*
X522260Y468830D03*
X558800Y565150D03*
X584420Y661450D03*
X572460Y902770D03*
X526970Y1242280D03*
X520700Y1333500D03*
X546100Y1390650D03*
X573780Y1336290D03*
X543930Y1332790D03*
X565150Y1403350D03*
X573780Y1469640D03*
X571500Y1549400D03*
X542030Y1501390D03*
X546100Y1568450D03*
X571500Y1638300D03*
X565150Y1689100D03*
X540520Y1773180D03*
X540220Y1735870D03*
X552450Y1860550D03*
X534030Y1916630D03*
X590550Y2057400D03*
X579450Y2128320D03*
X591780Y2187100D03*
X600630Y-51870D03*
X646580Y96320D03*
X657140Y329040D03*
X623860Y468830D03*
X631840Y534470D03*
X652460Y595830D03*
X598620Y801170D03*
X673280Y915310D03*
X658210Y1140680D03*
X628570Y1242280D03*
X647700Y1333500D03*
Y1422400D03*
X609600Y1447800D03*
X660400Y1600200D03*
Y1689100D03*
X640240Y1753720D03*
X666750Y1885950D03*
X641350Y1943100D03*
X615950Y2000250D03*
X669230Y2080740D03*
X681570Y-66200D03*
X702230Y-51870D03*
X676520Y-5280D03*
X748180Y96320D03*
X728990Y257190D03*
X711840Y418020D03*
X730010Y481530D03*
X733440Y534470D03*
X711200Y609600D03*
X730250Y635000D03*
X698500Y660400D03*
X700220Y801170D03*
X740000Y892000D03*
X720000Y1066000D03*
X674020Y1040320D03*
X698500Y1244600D03*
X720000Y1286000D03*
X711200Y1301750D03*
X730250D03*
X692150Y1828800D03*
X741070Y2008900D03*
X693380Y2187100D03*
X783170Y-66200D03*
X803830Y-51870D03*
X758000Y-28000D03*
X778120Y-5280D03*
X800830Y185350D03*
X783680Y346180D03*
X777250Y391580D03*
X754060Y595830D03*
X787620Y661450D03*
X768350Y711200D03*
X749300Y647700D03*
X806450Y774700D03*
X787400Y723900D03*
X806450Y819150D03*
X787400D03*
X768350D03*
X796000Y966000D03*
X758050Y1146000D03*
X758000Y1246000D03*
X816000D03*
X806450Y1301750D03*
X778000Y1286000D03*
X787400Y1301750D03*
X768350D03*
X749300D03*
X794980Y2187100D03*
X884770Y-66200D03*
X879720Y-5280D03*
X849780Y96320D03*
X855520Y274340D03*
X849090Y319740D03*
X831610Y481530D03*
X833120Y554150D03*
X833970Y658580D03*
X882650Y736600D03*
X863600Y749300D03*
X844550Y762000D03*
X825500Y787400D03*
X882650Y819150D03*
X863600D03*
X844550D03*
X834250Y926000D03*
X863600Y895350D03*
X844550Y876300D03*
X863600Y1066800D03*
X834000Y1146000D03*
X889000Y1244600D03*
X834250Y1286000D03*
X825500Y1301750D03*
X844550D03*
X858320Y1375330D03*
Y1476930D03*
Y1578530D03*
Y1680130D03*
Y1781730D03*
Y1883330D03*
X893230Y2000430D03*
X850900Y2095500D03*
X896580Y2187100D03*
X905430Y-51870D03*
X944000Y-28000D03*
X927370Y202490D03*
X920930Y247900D03*
X977110Y335390D03*
X905270Y407230D03*
X956020Y600000D03*
X971550Y654050D03*
X939800Y685800D03*
X935570Y658580D03*
X952500Y654050D03*
X971550Y806450D03*
X914400Y800100D03*
X952500Y806450D03*
X938730Y887610D03*
X908050Y1016000D03*
X963200Y947500D03*
X965200Y979500D03*
X919180Y1088890D03*
X959200Y1065500D03*
X974200Y1051500D03*
X967200Y1083500D03*
X961200Y1117500D03*
X920750Y1244600D03*
X919180Y1190490D03*
X959200Y1221500D03*
X914400Y1301750D03*
X933450Y1333500D03*
X914400Y1346200D03*
X965200Y1409700D03*
X914400Y1403350D03*
X959920Y1513110D03*
Y1614710D03*
Y1716310D03*
Y1817910D03*
X954460Y1919360D03*
X927100Y2082800D03*
X986370Y-66200D03*
X1007030Y-51870D03*
X981320Y-5280D03*
X999210Y130650D03*
X992780Y176050D03*
X1047890Y473950D03*
X1003300Y685800D03*
X1039030Y658580D03*
X990600Y654050D03*
X1007300Y801170D03*
X990600Y806450D03*
X981200Y935500D03*
X1025200Y1019500D03*
X997200Y969500D03*
X1023200Y997500D03*
X1011200Y1006500D03*
X993200D03*
X1036200Y1069500D03*
X985200Y1067500D03*
X1041400Y1155700D03*
X1016000Y1168400D03*
X995200Y1145500D03*
X1029200Y1119500D03*
X1016000Y1212850D03*
X996950D03*
X995600Y1276700D03*
X979600Y1324700D03*
X1016000Y1327150D03*
X1041400D03*
X1028700Y1403350D03*
X984250Y1416050D03*
X1009650D03*
X1046610Y1460120D03*
X1040880Y2085500D03*
X998180Y2187100D03*
X1087970Y-66200D03*
X1108630Y-51870D03*
X1082920Y-5280D03*
X1071050Y58810D03*
X1064620Y104210D03*
X1070700Y374940D03*
X1108900Y801170D03*
X1108870Y913330D03*
X1117600Y1003300D03*
X1070200Y1006500D03*
X1073200Y961500D03*
X1085200Y949500D03*
X1117600Y977900D03*
X1127200Y949500D03*
X1079200Y1069500D03*
X1103200Y1057500D03*
X1115200Y1093500D03*
X1099600Y1126700D03*
X1073150Y1155700D03*
X1079200Y1101500D03*
X1129200Y1107500D03*
X1119200Y1135500D03*
X1111250Y1162050D03*
X1069600Y1208700D03*
X1092200Y1181100D03*
Y1206500D03*
X1117600D03*
X1065600Y1278700D03*
X1111250Y1263650D03*
X1098550Y1320800D03*
X1066800Y1327150D03*
X1125600Y1346700D03*
X1092200Y1403350D03*
X1061520Y1561720D03*
Y1689230D03*
Y1790830D03*
X1061330Y1892430D03*
X1105550Y1983900D03*
X1099780Y2187100D03*
X1189570Y-66200D03*
X1132000Y-28000D03*
X1184520Y-5280D03*
X1181100Y107950D03*
X1159410Y140770D03*
X1143000Y152400D03*
X1162050Y254000D03*
X1130300Y241300D03*
X1162580Y211080D03*
X1200150Y228600D03*
X1170980Y315880D03*
X1181100Y355600D03*
X1130300Y482600D03*
X1200150Y457200D03*
X1162050Y533400D03*
X1143000Y635000D03*
X1130300Y660400D03*
Y685800D03*
X1162050Y774700D03*
X1204330Y766310D03*
X1200150Y749300D03*
X1181100Y762000D03*
X1143000Y787400D03*
X1193800Y850900D03*
X1182600Y940870D03*
X1155200Y950500D03*
X1152200Y979500D03*
X1196200Y987500D03*
X1147200Y1007500D03*
X1165200Y1005500D03*
X1183200Y1091500D03*
Y1053500D03*
X1139200D03*
X1157200Y1049500D03*
X1203200Y1139500D03*
X1171200Y1137500D03*
X1198200Y1185500D03*
X1189200Y1229500D03*
X1155700Y1238250D03*
X1155200Y1185500D03*
X1177200D03*
X1162050Y1308100D03*
X1157600Y1366700D03*
X1174750Y1403350D03*
X1148210Y1460120D03*
X1163120Y1561720D03*
X1142480Y2085500D03*
X1201380Y2187100D03*
X1210230Y-51870D03*
X1226500Y-26800D03*
X1278500Y25200D03*
X1257300Y44450D03*
X1219200Y127000D03*
X1231900Y114300D03*
Y215900D03*
Y342900D03*
X1219200Y431800D03*
X1231900Y419100D03*
X1219200Y558800D03*
X1231900Y520700D03*
Y622300D03*
X1250950Y685800D03*
X1238250Y660400D03*
X1263650Y698500D03*
X1219200Y736600D03*
X1238250Y723900D03*
X1263650Y863600D03*
X1210470Y913330D03*
X1244200Y938500D03*
X1210200Y1008500D03*
X1254200Y1043500D03*
X1210200Y1049500D03*
X1255200Y1095500D03*
Y1139500D03*
X1267200Y1201500D03*
X1273200Y1185500D03*
X1219200Y1187450D03*
X1253200Y1185500D03*
X1257200Y1227500D03*
X1219200Y1223500D03*
X1221200Y1275500D03*
X1247200D03*
X1235200D03*
X1219200Y1301750D03*
X1257300Y1320800D03*
X1276350Y1384300D03*
X1249810Y1460120D03*
X1260000Y1592330D03*
Y1693930D03*
Y1795530D03*
Y1897130D03*
X1207150Y1983900D03*
X1244080Y2085500D03*
X1291170Y-66200D03*
X1346200Y-69850D03*
X1333500Y0D03*
X1286120Y-5280D03*
X1346200Y88900D03*
X1352550Y63500D03*
X1289050Y165100D03*
Y266700D03*
Y368300D03*
Y469900D03*
X1353070Y445570D03*
X1348260Y547170D03*
X1289050Y571500D03*
X1314450Y685800D03*
X1339850Y781050D03*
X1314450D03*
X1327150Y717550D03*
X1289050Y781050D03*
X1339850Y844550D03*
X1301750Y927100D03*
X1352550Y876300D03*
Y920750D03*
X1289050Y914400D03*
X1314450Y895350D03*
X1284200Y940870D03*
X1327150Y927100D03*
X1352550Y1003300D03*
X1314450Y1022350D03*
X1299200Y973500D03*
X1339850Y952500D03*
X1289200Y1063500D03*
X1313420Y1060020D03*
X1315520Y1104030D03*
X1313420Y1136340D03*
X1291160D03*
X1352550Y1187450D03*
Y1212850D03*
X1337200Y1215500D03*
X1301200Y1229500D03*
X1352550Y1314450D03*
X1353200Y1253500D03*
X1339200Y1269500D03*
X1301200D03*
X1289050Y1276350D03*
X1352550Y1390650D03*
X1320420Y2018460D03*
X1346200Y2057400D03*
Y2190750D03*
X1371600Y-50800D03*
X1422400Y88900D03*
X1408630Y152080D03*
X1377950Y190500D03*
X1409700Y292100D03*
X1377950D03*
Y393700D03*
X1409700Y488950D03*
X1377950Y495300D03*
X1409700Y596900D03*
X1377950D03*
X1422400Y647700D03*
X1377950Y704850D03*
X1422400Y666750D03*
X1403350Y730250D03*
X1371600Y812800D03*
X1409700Y1022350D03*
X1397000Y1079500D03*
X1371600Y1117600D03*
X1361600Y1417580D03*
Y1519180D03*
Y1620780D03*
Y1722380D03*
Y1823980D03*
Y1925580D03*
X1371600Y2171700D03*
X1466850Y63500D03*
X1461570Y132840D03*
X1435100Y184150D03*
X1461570Y234440D03*
X1435100Y387350D03*
X1461570Y336040D03*
Y437640D03*
Y539240D03*
X1435100Y596900D03*
X1461570Y640840D03*
X1447800Y660400D03*
X1466850Y730250D03*
X1441450Y717550D03*
X1466850Y1003300D03*
X1463200Y1046380D03*
X1466850Y1117600D03*
Y1390650D03*
X1463200Y1452780D03*
Y1554380D03*
Y1655980D03*
Y1757580D03*
Y1859180D03*
Y1960780D03*
X1466850Y2057400D03*
G54D14*
X69850Y2139950D03*
X539750Y1016000D03*
X641350Y1485900D03*
X615950D03*
X641350Y1511300D03*
X615950D03*
X641350Y1536700D03*
X615950D03*
X641350Y1562100D03*
X615950D03*
X641350Y1587500D03*
X1111250Y876300D03*
X1377950Y127000D03*
Y228600D03*
Y330200D03*
Y431800D03*
Y533400D03*
Y635000D03*
Y736600D03*
Y838200D03*
G54D15*
X584200Y1371600D03*
Y1403350D03*
X1016000Y927100D03*
X1054100D03*
X1016000Y977900D03*
X1111250Y107950D03*
Y38100D03*
X1104900Y1238250D03*
Y1289050D03*
X1155700Y1123950D03*
X1187450D03*
X1263650Y996950D03*
Y965200D03*
X1225550Y1123950D03*
G54D16*
X1460500Y-50800D03*
Y838200D03*
Y1282700D03*
Y2171700D03*
G54D17*
G01X-25400Y-11520D02*
Y0D01*
G01D02*
Y11520D01*
G01X-36920Y0D02*
X-25400D01*
G01D02*
X-13880D01*
G01X-25400Y13880D02*
Y25400D01*
G01Y39280D02*
Y50800D01*
G01D02*
Y62320D01*
G01X-36920Y50800D02*
X-25400D01*
G01D02*
X-13880D01*
G01X-25400Y64680D02*
Y76200D01*
G01D02*
Y87720D01*
G01X-36920Y76200D02*
X-25400D01*
G01D02*
X-13880D01*
G01X-25400Y25400D02*
Y36920D01*
G01X-36920Y25400D02*
X-25400D01*
G01D02*
X-13880D01*
G01X-25400Y115480D02*
Y127000D01*
G01D02*
Y138520D01*
G01X-36920Y127000D02*
X-25400D01*
G01D02*
X-13880D01*
G01X-25400Y140880D02*
Y152400D01*
G01D02*
Y163920D01*
G01X-36920Y152400D02*
X-25400D01*
G01D02*
X-13880D01*
G01X-25400Y166280D02*
Y177800D01*
G01Y217080D02*
Y228600D01*
G01D02*
Y240120D01*
G01X-36920Y228600D02*
X-25400D01*
G01D02*
X-13880D01*
G01X-25400Y242480D02*
Y254000D01*
G01Y191680D02*
Y203200D01*
G01D02*
Y214720D01*
G01X-36920Y203200D02*
X-25400D01*
G01D02*
X-13880D01*
G01X-25400Y177800D02*
Y189320D01*
G01X-36920Y177800D02*
X-25400D01*
G01D02*
X-13880D01*
G01X-50800Y267880D02*
Y279400D01*
G01D02*
Y290920D01*
G01X-62320Y279400D02*
X-50800D01*
G01D02*
X-39280D01*
G01X-25400Y267880D02*
Y279400D01*
G01D02*
Y290920D01*
G01X-36920Y279400D02*
X-25400D01*
G01D02*
X-13880D01*
G01X-25400Y293280D02*
Y304800D01*
G01D02*
Y316320D01*
G01X-36920Y304800D02*
X-25400D01*
G01D02*
X-13880D01*
G01X-25400Y318680D02*
Y330200D01*
G01Y254000D02*
Y265520D01*
G01X-36920Y254000D02*
X-25400D01*
G01D02*
X-13880D01*
G01X-25400Y344080D02*
Y355600D01*
G01D02*
Y367120D01*
G01X-36920Y355600D02*
X-25400D01*
G01D02*
X-13880D01*
G01X-25400Y369480D02*
Y381000D01*
G01D02*
Y392520D01*
G01X-36920Y381000D02*
X-25400D01*
G01D02*
X-13880D01*
G01X-25400Y394880D02*
Y406400D01*
G01Y330200D02*
Y341720D01*
G01X-36920Y330200D02*
X-25400D01*
G01D02*
X-13880D01*
G01X-25400Y420280D02*
Y431800D01*
G01D02*
Y443320D01*
G01X-36920Y431800D02*
X-25400D01*
G01D02*
X-13880D01*
G01X-25400Y445680D02*
Y457200D01*
G01D02*
Y468720D01*
G01X-36920Y457200D02*
X-25400D01*
G01D02*
X-13880D01*
G01X-25400Y471080D02*
Y482600D01*
G01Y406400D02*
Y417920D01*
G01X-36920Y406400D02*
X-25400D01*
G01D02*
X-13880D01*
G01X-25400Y496480D02*
Y508000D01*
G01D02*
Y519520D01*
G01X-36920Y508000D02*
X-25400D01*
G01D02*
X-13880D01*
G01X-25400Y521880D02*
Y533400D01*
G01D02*
Y544920D01*
G01X-36920Y533400D02*
X-25400D01*
G01D02*
X-13880D01*
G01X-25400Y547280D02*
Y558800D01*
G01Y482600D02*
Y494120D01*
G01X-36920Y482600D02*
X-25400D01*
G01D02*
X-13880D01*
G01X-25400Y572680D02*
Y584200D01*
G01D02*
Y595720D01*
G01X-36920Y584200D02*
X-25400D01*
G01D02*
X-13880D01*
G01X-25400Y598080D02*
Y609600D01*
G01D02*
Y621120D01*
G01X-36920Y609600D02*
X-25400D01*
G01D02*
X-13880D01*
G01X-25400Y623480D02*
Y635000D01*
G01Y558800D02*
Y570320D01*
G01X-36920Y558800D02*
X-25400D01*
G01D02*
X-13880D01*
G01X-25400Y648880D02*
Y660400D01*
G01D02*
Y671920D01*
G01X-36920Y660400D02*
X-25400D01*
G01D02*
X-13880D01*
G01X-25400Y674280D02*
Y685800D01*
G01X-36920D02*
X-25400D01*
G01D02*
X-13880D01*
G01X-25400Y635000D02*
Y646520D01*
G01X-36920Y635000D02*
X-25400D01*
G01D02*
X-13880D01*
G01X-36920Y762000D02*
X-25400D01*
G01X-37530Y767450D02*
X-25400Y762000D01*
G01X-36920Y711200D02*
X-25400D01*
G01X-37530Y716650D02*
X-25400Y711200D01*
G01Y787400D02*
Y798920D01*
G01X-36920Y787400D02*
X-25400D01*
G01D02*
X-13880D01*
G01X-50800Y1372780D02*
Y1384300D01*
G01X-62320D02*
X-50800D01*
G01D02*
X-39280D01*
G01X-50800Y1626780D02*
Y1638300D01*
G01D02*
Y1649820D01*
G01X-62320Y1638300D02*
X-50800D01*
G01D02*
X-39280D01*
G01X-25400Y1765300D02*
Y1776570D01*
G01X-36670Y1765300D02*
X-25400D01*
G01D02*
X-14130D01*
G01X-25400Y1779430D02*
Y1790700D01*
G01D02*
Y1801970D01*
G01X-36670Y1790700D02*
X-25400D01*
G01D02*
X-14130D01*
G01X-25400Y1804830D02*
Y1816100D01*
G01D02*
Y1827370D01*
G01X-36670Y1816100D02*
X-25400D01*
G01D02*
X-14130D01*
G01X-25400Y1830230D02*
Y1841500D01*
G01D02*
Y1852770D01*
G01X-36670Y1841500D02*
X-25400D01*
G01D02*
X-14130D01*
G01X-25400Y1855630D02*
Y1866900D01*
G01D02*
Y1878170D01*
G01X-36670Y1866900D02*
X-25400D01*
G01D02*
X-14130D01*
G01X-25400Y1881030D02*
Y1892300D01*
G01D02*
Y1903570D01*
G01X-36670Y1892300D02*
X-25400D01*
G01D02*
X-14130D01*
G01X-25400Y1906430D02*
Y1917700D01*
G01D02*
Y1928970D01*
G01X-36670Y1917700D02*
X-25400D01*
G01D02*
X-14130D01*
G01X-50800Y1957230D02*
Y1968500D01*
G01D02*
Y1979770D01*
G01X-62070Y1968500D02*
X-50800D01*
G01D02*
X-39530D01*
G01X-25400Y1931830D02*
Y1943100D01*
G01D02*
Y1954370D01*
G01X-36670Y1943100D02*
X-25400D01*
G01D02*
X-14130D01*
G01X-25400Y1957230D02*
Y1968500D01*
G01D02*
Y1979770D01*
G01X-36670Y1968500D02*
X-25400D01*
G01D02*
X-14130D01*
G01X-25400Y2008030D02*
Y2019300D01*
G01D02*
Y2030570D01*
G01X-36670Y2019300D02*
X-25400D01*
G01D02*
X-14130D01*
G01X-25400Y2033430D02*
Y2044700D01*
G01D02*
Y2055970D01*
G01X-36670Y2044700D02*
X-25400D01*
G01D02*
X-14130D01*
G01X-25400Y2058830D02*
Y2070100D01*
G01D02*
Y2081370D01*
G01X-36670Y2070100D02*
X-25400D01*
G01D02*
X-14130D01*
G01X-25400Y2084230D02*
Y2095500D01*
G01D02*
Y2106770D01*
G01X-36670Y2095500D02*
X-25400D01*
G01D02*
X-14130D01*
G01X-25400Y2109630D02*
Y2120900D01*
G01D02*
Y2132170D01*
G01X-36670Y2120900D02*
X-25400D01*
G01D02*
X-14130D01*
G01X0Y267880D02*
Y279400D01*
G01D02*
Y290920D01*
G01X-11520Y279400D02*
X0D01*
G01D02*
X11520D01*
G01X0Y1372780D02*
Y1384300D01*
G01X-11520D02*
X0D01*
G01D02*
X11520D01*
G01X0Y1626780D02*
Y1638300D01*
G01D02*
Y1649820D01*
G01X-11520Y1638300D02*
X0D01*
G01D02*
X11520D01*
G01X0Y1957230D02*
Y1968500D01*
G01D02*
Y1979770D01*
G01X-11270Y1968500D02*
X0D01*
G01D02*
X11270D01*
G01X69850Y2128430D02*
Y2139950D01*
G01D02*
Y2151470D01*
G01X58330Y2139950D02*
X69850D01*
G01D02*
X81370D01*
G01X69850Y2103280D02*
Y2114550D01*
G01D02*
Y2125820D01*
G01X58580Y2114550D02*
X69850D01*
G01D02*
X81120D01*
G01X177800Y1671230D02*
Y1682750D01*
G01D02*
Y1694270D01*
G01X166280Y1682750D02*
X177800D01*
G01X228600Y1671230D02*
Y1682750D01*
G01D02*
Y1694270D01*
G01Y1682750D02*
X240120D01*
G01X539750Y1004230D02*
Y1016000D01*
G01Y1029880D02*
Y1041400D01*
G01D02*
Y1052920D01*
G01X528230Y1041400D02*
X539750D01*
G01D02*
X551270D01*
G01X539750Y1016000D02*
Y1027770D01*
G01X527980Y1016000D02*
X539750D01*
G01D02*
X551520D01*
G01X641350Y1524930D02*
Y1536700D01*
G01D02*
Y1548470D01*
G01X629580Y1536700D02*
X641350D01*
G01D02*
X653120D01*
G01X641350Y1499530D02*
Y1511300D01*
G01D02*
Y1523070D01*
G01X629580Y1511300D02*
X641350D01*
G01D02*
X653120D01*
G01X641350Y1474130D02*
Y1485900D01*
G01D02*
Y1497670D01*
G01X629580Y1485900D02*
X641350D01*
G01D02*
X653120D01*
G01X641350Y1550330D02*
Y1562100D01*
G01D02*
Y1573870D01*
G01X629580Y1562100D02*
X641350D01*
G01D02*
X653120D01*
G01X1016000Y913330D02*
Y927100D01*
G01D02*
Y940870D01*
G01X1002230Y927100D02*
X1016000D01*
G01D02*
X1029770D01*
G01X1111250Y24330D02*
Y38100D01*
G01D02*
Y51870D01*
G01X1097480Y38100D02*
X1111250D01*
G01D02*
X1125020D01*
G01X1111250Y839380D02*
Y850900D01*
G01D02*
Y862420D01*
G01X1099730Y850900D02*
X1111250D01*
G01D02*
X1122770D01*
G01X1111250Y864530D02*
Y876300D01*
G01D02*
Y888070D01*
G01X1099480Y876300D02*
X1111250D01*
G01D02*
X1123020D01*
G01X1263650Y951430D02*
Y965200D01*
G01D02*
Y978970D01*
G01X1249880Y965200D02*
X1263650D01*
G01D02*
X1277420D01*
G01X1225550Y1110180D02*
Y1123950D01*
G01D02*
Y1137720D01*
G01X1211780Y1123950D02*
X1225550D01*
G01D02*
X1239320D01*
G01X1377950Y838200D02*
X1365250D01*
G03X1358900Y831850I0J-6350D01*
G01Y742950D01*
G03X1365250Y736600I6350J0D01*
G01X1377950D01*
G54D18*
G01X165100Y1371600D02*
X175300D01*
G03X177800Y1374100I0J2500D01*
G01Y1447800D01*
G01D02*
Y1479550D01*
G01Y1568450D02*
Y1479550D01*
G01Y1593850D02*
Y1568450D01*
G01X279400Y1358900D02*
Y1466850D01*
G01Y1479550D02*
Y1466850D01*
G01Y1553850D02*
Y1479550D01*
G54D19*
G01X-50800Y711200D02*
X-39960Y700360D01*
G03X-35470Y698500I4490J4490D01*
G01X60870D01*
G02X65360Y696640I0J-6350D01*
G01X68990Y693010D01*
G03X73480Y691150I4490J4490D01*
G01X83550D01*
G01X-50800Y736600D02*
X-39960Y725760D01*
G03X-35470Y723900I4490J4490D01*
G01X73570D01*
G02X78060Y722040I0J-6350D01*
G01X83050Y717050D01*
G01X-50800Y787400D02*
X-39960Y776560D01*
G03X-35470Y774700I4490J4490D01*
G01X60870D01*
G03X65360Y776560I0J6350D01*
G01X67490Y778690D01*
G02X71980Y780550I4490J-4490D01*
G01X83050D01*
G01X-50800Y762000D02*
X-39960Y751160D01*
G03X-35470Y749300I4490J4490D01*
G01X73570D01*
G03X78060Y751160I0J6350D01*
G01X82550Y755650D01*
G01X0Y736600D02*
X79920D01*
G02X84410Y734740I0J-6350D01*
G01X88900Y730250D01*
G01X0Y711200D02*
X67220D01*
G02X71710Y709340I0J-6350D01*
G01X74840Y706210D01*
G03X79330Y704350I4490J4490D01*
G01X89400D01*
G01X0Y762000D02*
X67220D01*
G03X71710Y763860I0J6350D01*
G01X74340Y766490D01*
G02X78830Y768350I4490J-4490D01*
G01X88900D01*
G01X0Y787400D02*
X72400D01*
G03X76890Y789260I0J6350D01*
G01X79520Y791890D01*
G02X84010Y793750I4490J-4490D01*
G01X88900D01*
G01X63500Y609600D02*
Y508000D01*
G01X82550Y635000D02*
Y520700D01*
G01X177800Y1447800D02*
X165100D01*
G01Y1568450D02*
X177800D01*
G01X298450Y1460500D02*
X288380D01*
G02X283890Y1462360I0J6350D01*
G01X279400Y1466850D01*
G01X291370Y1568450D02*
X281260Y1558340D01*
G03X279400Y1553850I4490J-4490D01*
G01X330200Y1517650D02*
Y476250D01*
G01X349250Y1332030D02*
Y463550D01*
G01X311150Y1543050D02*
Y488950D01*
G01X349250Y1530350D02*
Y1377950D01*
G01X368300Y1332030D02*
Y450850D01*
G01X406400Y622300D02*
Y495300D01*
G01X368300Y1555750D02*
Y1377950D01*
G01X387250Y1524000D02*
Y1424370D01*
X387350Y1424270D01*
Y1377950D01*
G01X406400Y1536700D02*
Y1377950D01*
G01X463550Y647700D02*
Y482600D01*
G01X711200Y1301750D02*
Y609600D01*
G01X730250Y1301750D02*
Y635000D01*
G01X749300Y1301750D02*
Y1249680D01*
X749250Y1249630D01*
Y1242370D01*
X749300Y1242320D01*
Y647700D01*
G01X806450Y819150D02*
Y774700D01*
G01X787400Y819150D02*
Y723900D01*
G01X768350Y819150D02*
Y711200D01*
G01X806450Y1301750D02*
Y819150D01*
G01X787400Y1301750D02*
Y969780D01*
X787250Y969630D01*
Y962370D01*
X787400Y962220D01*
Y819150D01*
G01X768350Y1301750D02*
Y819150D01*
G01X882650Y736600D02*
Y819150D01*
G01X863600Y749300D02*
Y819150D01*
G01X844550Y762000D02*
Y819150D01*
G01X825500Y787400D02*
Y1142120D01*
X825250Y1142370D01*
Y1149630D01*
X825500Y1149880D01*
Y1301750D01*
G01X844550D02*
Y876300D01*
G01X952500Y806450D02*
Y654050D01*
G01X971550D02*
Y806450D01*
G01X990600D02*
Y654050D01*
G01X1143000Y635000D02*
Y152400D01*
G01X1162050Y533400D02*
Y254000D01*
G01X1181100Y762000D02*
Y355600D01*
G01X1162050Y774700D02*
Y533400D01*
G01X1143000Y787400D02*
Y635000D01*
G01X1219200Y431800D02*
Y127000D01*
G01X1200150Y457200D02*
Y228600D01*
G01X1219200Y558800D02*
Y431800D01*
G01X1200150Y749300D02*
Y457200D01*
G01X1219200Y736600D02*
Y558800D01*
G01X1238250Y723900D02*
Y660400D01*
G01X1263650Y863600D02*
Y698500D01*
G01X1301750Y927100D02*
Y720180D01*
G03X1303610Y715690I6350J0D01*
G01X1325290Y694010D01*
G03X1329780Y692150I4490J4490D01*
G01X1381670D01*
G02X1386160Y690290I0J-6350D01*
G01X1420540Y655910D01*
G02X1422400Y651420I-4490J-4490D01*
G01Y647700D01*
G01X1327150Y927100D02*
Y745580D01*
G03X1329010Y741090I6350J0D01*
G01X1350690Y719410D01*
G03X1355180Y717550I4490J4490D01*
G01X1388020D01*
G02X1392510Y715690I0J-6350D01*
G01X1447800Y660400D01*
M02*
