M48
METRIC,TZ
T01C.5
T02C1.
T03C1.2
T04C2.7
T05C2.7
;LEADER: 12 
;HEADER: 
;CODE  : ASCII 
;FILE  : BVP_04V5-1-2.drl for  ... layers TOP and BOTTOM
;DESIGN: BVP_04V5.brd
;T01 Holesize 1. = 0.500000 Tolerance = +0.000000/-0.000000 PLATED MM Quantity = 717
;T02 Holesize 2. = 1.000000 Tolerance = +0.000000/-0.000000 PLATED MM Quantity = 233
;T03 Holesize 3. = 1.200000 Tolerance = +0.000000/-0.000000 PLATED MM Quantity = 9
;T04 Holesize 4. = 2.700000 Tolerance = +0.000000/-0.000000 PLATED MM Quantity = 4
;T05 Holesize 5. = 2.700000 Tolerance = +0.000000/-0.000000 NON_PLATED MM Quantity = 4
%
G90
T01
X349250Y1332030
Y463550
X368300Y1332030
Y450850
X406400Y1536700
Y1377950
X387350
X387250Y1524000
X349250Y1530350
Y1377950
X368300Y1555750
Y1377950
X311150Y1543050
Y488950
X330200Y1517650
Y476250
X844550Y1301750
Y876300
X749300Y1301750
Y647700
X463550Y482600
Y647700
X730250Y1301750
Y635000
X711200Y1301750
Y609600
X952500Y806450
Y654050
X82550Y520700
Y635000
X1143000Y152400
X825500Y1301750
Y787400
X1143000Y635000
Y787400
X1263650Y698500
Y863600
X768350Y1301750
Y819150
Y711200
X1181100Y355600
Y762000
X844550
Y819150
X787400Y1301750
Y819150
Y723900
X1238250
Y660400
X1200150Y228600
Y749300
Y457200
X863600Y749300
Y819150
X279400Y1358900
X298450Y1460500
X291370Y1568450
X279400Y1479550
X330200Y2063750
Y2019300
Y1962150
Y1790700
X88900Y768350
X1327150Y927100
X1447800Y660400
X165100Y1384300
Y1460500
Y1504950
Y1581150
X139700Y1403350
X127000Y1390650
X139700Y1524000
X114300Y1466850
X82550Y1524000
X12700
Y1447800
X69850
X-82550
Y1543050
X38100Y1593850
X101600Y1574800
X165100Y1606550
X50800Y1619250
X177800Y1638300
X31750Y1695450
Y1670050
X57150
X76200Y1657350
X-82550
X101600Y1695450
X83550Y691150
X990600Y806450
Y654050
X406400Y622300
Y495300
X89400Y704350
X61050Y1972400
X63500Y1828800
R04Y25400
X12700Y1955800
X-69850Y1778000
R02Y127000
Y2139950
X-44450Y2165350
X25400
X120650Y2146300
X25400Y2032000
Y2139950
X152400Y2120900
X101600Y2076450
X152400Y2063750
X120650Y2044700
X152400Y2006600
Y1917700
Y1885950
Y1828800
X63500Y1803400
Y1771650
X165100
X19050
X63500Y2032000
Y1955800
X88900Y793750
X82550Y755650
X83050Y780550
Y717050
X177800Y1593850
X165100Y1568450
Y1447800
Y1371600
X177800Y1479550
X88900Y730250
X251990Y834000
X196850Y800100
X195200Y685800
X254530Y660400
X254000Y546100
X153200Y575500
X1041400Y1327150
X1016000
X1098550Y1320800
X1111250Y1162050
X1119200Y1135500
X1115200Y1093500
X1103200Y1057500
X1157200Y1049500
X1165200Y1005500
X1147200Y1007500
X1139200Y1053500
X1129200Y1107500
X1183200Y1053500
Y1091500
X1171200Y1137500
X1177200Y1185500
X1155200
X1155700Y1238250
X1125600Y1346700
X1157600Y1366700
X1189200Y1229500
X1219200Y1223500
X1289050Y1276350
X1301200Y1269500
X1276350Y1384300
X1339200Y1269500
X1353200Y1253500
X1257200Y1227500
X1301200Y1229500
X1337200Y1215500
X1352550Y1212850
X1253200Y1185500
X1255200Y1139500
X1291160Y1136340
X1255200Y1095500
X1210200Y1049500
Y1008500
X1196200Y987500
X1152200Y979500
X1155200Y950500
X1127200Y949500
X1117600Y977900
X1085200Y949500
X1073200Y961500
X965200Y979500
X1313420Y1060020
Y1136340
X1244200Y938500
X1339850Y952500
X1289200Y1063500
X1254200Y1043500
X1299200Y973500
X1070200Y1006500
X1117600Y1003300
X993200Y1006500
X1011200
X1023200Y997500
X997200Y969500
X963200Y947500
X1198200Y1185500
X1219200Y1187450
X1352550
X1397000Y1079500
X1162050Y1308100
X981200Y935500
X1025200Y1019500
X967200Y1083500
X985200Y1067500
X974200Y1051500
X959200Y1065500
Y1221500
X961200Y1117500
X1029200Y1119500
X1036200Y1069500
X1079200
Y1101500
X995200Y1145500
X1073150Y1155700
X1203200Y1139500
X1273200Y1185500
X1267200Y1201500
X1257300Y1320800
X1219200Y1301750
X1235200Y1275500
X1247200
X1221200
X292100Y1384300
X513380Y1449080
X431800Y1439800
X471180Y1404320
X292100Y1504950
X468620Y1491280
X590550Y2057400
X349250Y2063750
X615950Y2000250
X469900Y2032000
X641350Y1943100
X508000Y1974850
X666750Y1885950
X534030Y1916630
X428020Y1887020
X426140Y1829870
X692150Y1828800
X552450Y1860550
X540220Y1735870
X640240Y1753720
X540520Y1773180
R02X-101600
X1182600Y940870
X1284200
X1314450Y1022350
X293820Y801170
R04X101600
X938730Y887610
X908050Y1016000
X919180Y1088890
Y1190490
X628570Y1242280
R02X-101600
X249880Y1172550
X249770Y1070950
X249660Y969350
X1007300Y801170
X1108900
X1204330Y766310
X1289050Y781050
X1314450Y895350
X1210470Y913330
X1108870
X935570Y658580
X833970
X754060Y595830
X652460
X476250Y596900
X450850
X419100Y533400
X476250
X631840Y534470
X733440
X833120Y554150
X78810Y871770
X180410
X200220Y971420
X200470Y1073020
X200720Y1174620
X111510Y1223230
X9910
X-78900Y1173880
R02Y-101600
X-66700Y869810
X-78900Y768950
R05Y-101600
X831610Y481530
X730010
X777250Y391580
X849090Y319740
X920930Y247900
X992780Y176050
X1064620Y104210
X1159410Y140770
X1231900Y114300
X1289050Y165100
X1162580Y211080
X1231900Y215900
X1289050Y266700
X1170980Y315880
X1231900Y342900
X1377950Y393700
X1231900Y419100
X1353070Y445570
X1231900Y520700
X1348260Y547170
X1231900Y622300
X1039030Y658580
X956020Y600000
X858320Y1883330
R05Y-101600
X1315520Y1104030
X1409700Y1022350
X1441450Y717550
X1461570Y640840
R05Y-101600
X1463200Y1046380
Y1452780
Y1554380
R04Y101600
X1346200Y2057400
X1201380Y2187100
R07X-101600
X368300Y2190750
X260350
X477850Y2128320
X579450
X669230Y2080740
X741070Y2008900
X1071050Y58810
X999210Y130650
X927370Y202490
X855520Y274340
X783680Y346180
X711840Y418020
X623860Y468830
X522260
X421450Y481530
X330090Y437080
X228490
X126910Y435330
X25370Y438950
X19430Y337530
X60590Y244640
X132430Y172790
X204270Y100950
X276120Y29110
X371720Y-5280
R09X101600
X1352550Y63500
X1408630Y152080
X-78900Y209300
R02Y-101600
X1346200Y-69850
X1210230Y-51870
R09X-101600
X219420Y15100
X147580Y86940
X75740Y158780
X20590Y73450
X-18650Y-20270
X71970Y-66200
R12X101600
X1361600Y1417580
R05Y101600
X1320420Y2018460
X1244080Y2085500
R02X-101600
X927100Y2082800
X850900Y2095500
X893230Y2000430
X954460Y1919360
X959920Y1817910
R03Y-101600
X1046610Y1460120
R02X101600
X98630Y973370
X98880Y1074970
X572460Y902770
X673280Y915310
X658210Y1140680
X674020Y1040320
X447770Y931370
X405180Y1023610
X471830Y1140680
X905270Y407230
X977110Y335390
X1070700Y374940
X1047890Y473950
X338640Y335480
X237040
X135590Y329980
X198610Y250290
X270460Y178450
X342300Y106610
X443380Y96320
R04X101600
X800830Y185350
X728990Y257190
X657140Y329040
X563000Y367230
X1061520Y1561720
X1163120
X1260000Y1592330
R03Y101600
X1207150Y1983900
X1105550
X1061330Y1892430
X1061520Y1790830
Y1689230
X483870Y262810
X387390Y230950
X483480Y197920
X585080
X298670Y1245650
X247870
X197070Y1207550
X-82330Y1226600
X82770Y1334550
X25620
X31970Y1379000
X-82330
X95470Y597950
Y534450
X197070Y648750
X203420Y559850
X247870Y807500
Y699550
X298450Y685800
Y660400
X425670Y661450
X584420
X787620
X698500Y660400
X381000Y596900
Y533400
X298450
Y596900
X127000Y495300
X1377950Y596900
Y495300
Y292100
Y190500
X1409700Y292100
Y488950
X1422400Y666750
X1435100Y596900
Y387350
Y184150
X1346200Y88900
X1333500Y0
X1132000Y-28000
X944000
X758000
R02X-210000
X240000Y30000
X122000Y148000
X25400Y241300
Y203200
X1193800Y850900
X863600Y895350
X914400Y800100
X863600Y1066800
X920750Y1244600
X889000
X914400Y1301750
Y1346200
Y1403350
X543930Y1332790
X469930
X427730Y1368040
X510280
X388000Y1330800
X573780Y1336290
Y1469640
X542030Y1501390
X298450Y1333500
X320000Y1332000
Y1460000
X358000Y1494000
X396100Y1510000
X378000Y1448000
Y1246000
X340000
X425450Y1562100
X387350Y1555750
X323850Y1568450
X279400Y1638300
X323850
X387350
Y1689100
X495300Y1638300
Y1568450
X565150Y1689100
X660400
Y1600200
X571500Y1549400
X546100Y1568450
X571500Y1638300
X609600Y1447800
X546100Y1390650
X520700Y1333500
X320000Y1158000
X340000Y1018000
X358000Y922000
X320000Y840000
X381000Y1104900
X298450Y933450
X698500Y1244600
X720000Y1286000
X778000
X834250
X816000Y1246000
X758000
X396000Y1428000
X758050Y1146000
X796000Y966000
X834000Y1146000
X720000Y1066000
X740000Y892000
X834250Y926000
X1377950Y704850
X647700Y1422400
Y1333500
X565150Y1403350
X260350Y1771650
X349250Y1917700
Y1860550
Y1943100
Y2000250
X355600Y2146300
X381000Y685800
Y495300
X558800Y565150
X1003300Y685800
X939800
X1130300
X1250950
X1130300Y660400
Y482600
Y241300
X1181100Y107950
X-6350Y1073150
X285750Y1657350
Y1701800
X387350Y1752600
X361950
X342900Y1733550
X406400
X1009650Y1416050
X984250
X965200Y1409700
X1257300Y44450
X1289050Y368300
R02Y101600
X1409700Y596900
X1314450Y685800
X1327150Y717550
X1314450Y781050
X933450Y1333500
X320500Y597200
X358500
X339500Y685200
Y597200
Y660200
X381000Y660400
X1466850Y63500
X1422400Y88900
X1278500Y25200
X1226500Y-26800
X1346200Y2190750
X1466850Y2057400
X1371600Y1117600
X1352550Y1390650
Y1003300
X1371600Y812800
X1339850Y781050
X1289050Y914400
X1339850Y844550
X1403350Y730250
X1466850
X1352550Y1314450
Y920750
Y876300
X1466850Y1117600
Y1390650
Y1003300
X258460Y1831760
Y1889000
Y1945400
Y2003480
Y2060720
Y2117960
X457200Y1689100
X330200Y1543050
X279400Y1593850
X294500Y1475200
X1028700Y1403350
X979600Y1324700
X1174750Y1403350
X1092200
X1117600Y1206500
X1092200
Y1181100
X1016000Y1168400
X1041400Y1155700
X996950Y1212850
X995600Y1276700
X1111250Y1263650
X1065600Y1278700
X1066800Y1327150
X1016000Y1212850
X1069600Y1208700
X1099600Y1126700
X44450Y2165350
X171450Y2119830
R02Y-57150
Y1944170
X170900Y1887020
Y1829870
X1301750Y927100
X1422400Y647700
X806450Y1301750
Y819150
Y774700
X1162050Y533400
Y774700
Y254000
X971550Y806450
Y654050
X63500Y508000
Y609600
X1219200Y127000
Y736600
Y558800
Y431800
X882650Y736600
Y819150
T02
X254000Y1682750
X228600
X177800
X127000
X584200Y1371600
Y1403350
X1155700Y1123950
X1187450
X1225550
X1377950Y762000
Y736600
Y660400
Y635000
Y558800
Y533400
Y457200
Y431800
Y355600
Y330200
Y254000
Y228600
Y152400
Y127000
Y863600
Y838200
X-50800Y1333500
Y1562100
Y1587500
R08Y25400
Y1358900
Y1816100
Y1841500
R08Y25400
Y1384300
Y2070100
Y2095500
Y2120900
Y1409700
R05Y25400
X-25400Y1333500
Y1562100
Y1587500
R08Y25400
Y1358900
Y1816100
Y1841500
R08Y25400
Y1384300
Y2070100
Y2095500
Y2120900
Y1409700
R05Y25400
X0Y1333500
X0Y1562100
X0Y1587500
R08Y25400
X0Y1358900
X0Y1816100
X0Y1841500
R08Y25400
X0Y1384300
X0Y2070100
X0Y2095500
X0Y2120900
X0Y1409700
R05Y25400
X-50800Y0
Y228600
Y254000
R08Y25400
Y25400
Y482600
Y508000
R08Y25400
Y50800
Y736600
Y762000
Y787400
Y76200
R05Y25400
X-25400Y0
Y228600
Y254000
R08Y25400
Y25400
Y482600
Y508000
R08Y25400
Y50800
Y736600
Y762000
Y787400
Y76200
R05Y25400
X0Y0
X0Y228600
X0Y254000
R08Y25400
X0Y25400
X0Y482600
X0Y508000
R08Y25400
X0Y50800
X0Y736600
X0Y762000
X0Y787400
X0Y76200
R05Y25400
X69850Y2114550
Y2139950
X539750Y1041400
Y1016000
X1111250Y850900
Y876300
X615950Y1587500
X641350
X615950Y1562100
X641350
X615950Y1536700
X641350
X615950Y1511300
X641350
X615950Y1485900
X641350
T03
X1016000Y927100
X1111250Y38100
X1263650Y996950
Y965200
X1054100Y927100
X1016000Y977900
X1104900Y1238250
Y1289050
X1111250Y107950
T04
X-76200Y1282700
Y2171700
Y-50800
Y838200
T05
X1460500Y838200
Y1282700
Y2171700
Y-50800
M30
