G04 ================== begin FILE IDENTIFICATION RECORD ==================*
G04 Layout Name:  D:/Project/Circuit/BVP/04v5/pcb/BVP_04V5.brd*
G04 Film Name:    MASK_BOT*
G04 File Format:  Gerber RS274X*
G04 File Origin:  Cadence Allegro 16.6-2015-S053*
G04 Origin Date:  Mon Dec 21 09:07:19 2015*
G04 *
G04 Layer:  PACKAGE GEOMETRY/SOLDERMASK_BOTTOM*
G04 Layer:  PIN/SOLDERMASK_BOTTOM*
G04 Layer:  VIA CLASS/SOLDERMASK_BOTTOM*
G04 *
G04 Offset:    (0.000 0.000)*
G04 Mirror:    No*
G04 Mode:      Positive*
G04 Rotation:  0*
G04 FullContactRelief:  No*
G04 UndefLineWidth:     0.000*
G04 ================== end FILE IDENTIFICATION RECORD ====================*
%FSLAX34Y34*MOMM*%
%IR0*IPPOS*OFA0.00000B0.00000*MIA0B0*SFA1.00000B1.00000*%
%ADD13C,3.*%
%ADD15C,2.2*%
%ADD10C,4.2*%
%ADD14C,1.8*%
%ADD16C,2.8*%
%ADD11C,1.75*%
%ADD12R,1.75X1.75*%
%LPD*%
G75*
G54D10*
X-76200Y-50800D03*
Y838200D03*
Y1282700D03*
Y2171700D03*
G54D11*
X-25400Y25400D03*
X-50800D03*
X-25400Y101600D03*
Y76200D03*
Y50800D03*
X-50800Y101600D03*
Y76200D03*
Y50800D03*
X-25400Y177800D03*
Y152400D03*
Y127000D03*
X-50800Y177800D03*
Y152400D03*
Y127000D03*
X-25400Y203200D03*
Y254000D03*
X-50800Y203200D03*
Y254000D03*
X-25400Y330200D03*
Y304800D03*
Y279400D03*
X-50800Y330200D03*
Y304800D03*
Y279400D03*
X-25400Y406400D03*
Y381000D03*
Y355600D03*
X-50800Y406400D03*
Y381000D03*
Y355600D03*
X-25400Y457200D03*
Y431800D03*
X-50800Y457200D03*
Y431800D03*
X-25400Y558800D03*
Y533400D03*
Y508000D03*
X-50800Y558800D03*
Y533400D03*
Y508000D03*
X-25400Y635000D03*
Y609600D03*
Y584200D03*
X-50800Y635000D03*
Y609600D03*
Y584200D03*
X-25400Y711200D03*
Y685800D03*
Y660400D03*
X-50800Y711200D03*
Y685800D03*
Y660400D03*
X-25400Y787400D03*
Y762000D03*
X-50800Y787400D03*
Y762000D03*
X-25400Y1384300D03*
Y1358900D03*
X-50800Y1384300D03*
Y1358900D03*
X-25400Y1460500D03*
Y1435100D03*
Y1409700D03*
X-50800Y1460500D03*
Y1435100D03*
Y1409700D03*
X-25400Y1536700D03*
Y1511300D03*
Y1485900D03*
X-50800Y1536700D03*
Y1511300D03*
Y1485900D03*
X-25400Y1612900D03*
Y1587500D03*
X-50800Y1612900D03*
Y1587500D03*
X-25400Y1689100D03*
Y1663700D03*
Y1638300D03*
X-50800Y1689100D03*
Y1663700D03*
Y1638300D03*
X-25400Y1765300D03*
Y1739900D03*
Y1714500D03*
X-50800Y1765300D03*
Y1739900D03*
Y1714500D03*
X-25400Y1841500D03*
Y1790700D03*
X-50800Y1841500D03*
Y1790700D03*
X-25400Y1917700D03*
Y1892300D03*
Y1866900D03*
X-50800Y1917700D03*
Y1892300D03*
Y1866900D03*
X-25400Y1993900D03*
Y1968500D03*
Y1943100D03*
X-50800Y1993900D03*
Y1968500D03*
Y1943100D03*
X-25400Y2044700D03*
Y2019300D03*
X-50800Y2044700D03*
Y2019300D03*
X-25400Y2120900D03*
Y2095500D03*
X-50800Y2120900D03*
Y2095500D03*
X0Y25400D03*
Y101600D03*
Y76200D03*
Y50800D03*
Y177800D03*
Y152400D03*
Y127000D03*
Y203200D03*
Y254000D03*
Y330200D03*
Y304800D03*
Y279400D03*
Y406400D03*
Y381000D03*
Y355600D03*
Y457200D03*
Y431800D03*
Y558800D03*
Y533400D03*
Y508000D03*
Y635000D03*
Y609600D03*
Y584200D03*
Y711200D03*
Y685800D03*
Y660400D03*
Y787400D03*
Y762000D03*
Y1384300D03*
Y1358900D03*
Y1460500D03*
Y1435100D03*
Y1409700D03*
Y1536700D03*
Y1511300D03*
Y1485900D03*
Y1612900D03*
Y1587500D03*
Y1689100D03*
Y1663700D03*
Y1638300D03*
Y1765300D03*
Y1739900D03*
Y1714500D03*
Y1841500D03*
Y1790700D03*
Y1917700D03*
Y1892300D03*
Y1866900D03*
Y1993900D03*
Y1968500D03*
Y1943100D03*
Y2044700D03*
Y2019300D03*
Y2120900D03*
Y2095500D03*
X127000Y1682750D03*
X177800D03*
X228600D03*
G54D12*
X-25400Y0D03*
X-50800D03*
X-25400Y228600D03*
X-50800D03*
X-25400Y482600D03*
X-50800D03*
X-25400Y736600D03*
X-50800D03*
X-25400Y1333500D03*
X-50800D03*
X-25400Y1562100D03*
X-50800D03*
X-25400Y1816100D03*
X-50800D03*
X-25400Y2070100D03*
X-50800D03*
X0Y0D03*
Y228600D03*
Y482600D03*
Y736600D03*
Y1333500D03*
Y1562100D03*
Y1816100D03*
Y2070100D03*
X69850Y2114550D03*
X254000Y1682750D03*
X539750Y1041400D03*
X615950Y1587500D03*
X1111250Y850900D03*
X1377950Y152400D03*
Y254000D03*
Y355600D03*
Y457200D03*
Y558800D03*
Y660400D03*
Y762000D03*
Y863600D03*
G54D13*
X0Y-50800D03*
Y2171700D03*
X1371600Y-50800D03*
Y2171700D03*
G54D14*
X69850Y2139950D03*
X539750Y1016000D03*
X641350Y1485900D03*
X615950D03*
X641350Y1511300D03*
X615950D03*
X641350Y1536700D03*
X615950D03*
X641350Y1562100D03*
X615950D03*
X641350Y1587500D03*
X1111250Y876300D03*
X1377950Y127000D03*
Y228600D03*
Y330200D03*
Y431800D03*
Y533400D03*
Y635000D03*
Y736600D03*
Y838200D03*
G54D15*
X584200Y1371600D03*
Y1403350D03*
X1016000Y927100D03*
X1054100D03*
X1016000Y977900D03*
X1111250Y107950D03*
Y38100D03*
X1104900Y1238250D03*
Y1289050D03*
X1155700Y1123950D03*
X1187450D03*
X1263650Y996950D03*
Y965200D03*
X1225550Y1123950D03*
G54D16*
X1460500Y-50800D03*
Y838200D03*
Y1282700D03*
Y2171700D03*
M02*
