G04 ================== begin FILE IDENTIFICATION RECORD ==================*
G04 Layout Name:  D:/Project/Circuit/BVP/04v5/pcb/BVP_04V5.brd*
G04 Film Name:    MASK_TOP*
G04 File Format:  Gerber RS274X*
G04 File Origin:  Cadence Allegro 16.6-2015-S053*
G04 Origin Date:  Mon Dec 21 09:07:19 2015*
G04 *
G04 Layer:  PACKAGE GEOMETRY/SOLDERMASK_TOP*
G04 Layer:  PIN/SOLDERMASK_TOP*
G04 Layer:  VIA CLASS/SOLDERMASK_TOP*
G04 *
G04 Offset:    (0.000 0.000)*
G04 Mirror:    No*
G04 Mode:      Positive*
G04 Rotation:  0*
G04 FullContactRelief:  No*
G04 UndefLineWidth:     0.000*
G04 ================== end FILE IDENTIFICATION RECORD ====================*
%FSLAX34Y34*MOMM*%
%IR0*IPPOS*OFA0.00000B0.00000*MIA0B0*SFA1.00000B1.00000*%
%ADD29R,.8X1.2*%
%ADD20R,.8X1.3*%
%ADD13C,3.*%
%ADD32R,1.3X.8*%
%ADD30C,2.2*%
%ADD24R,2.2X.8*%
%ADD10C,4.2*%
%ADD34R,1.65X.5*%
%ADD23C,1.8*%
%ADD35C,2.8*%
%ADD27R,.8X1.75*%
%ADD28R,1.75X.8*%
%ADD11C,1.75*%
%ADD33R,1.65X.65*%
%ADD17R,2.25X2.25*%
%ADD15R,1.45X1.45*%
%ADD12R,1.75X1.75*%
%ADD19R,1.6X1.3*%
%ADD22R,2.2X3.6*%
%ADD31R,1.3X1.45*%
%ADD14R,1.15X1.6*%
%ADD21R,1.6X1.15*%
%ADD25O,2.35X1.7*%
%ADD26R,5.7X1.7*%
%ADD16R,1.45X1.27*%
%ADD18R,1.65X1.35*%
G75*
%LPD*%
G75*
G36*
G01X1428500Y895700D02*
Y770700D01*
G02X1397500I-15500J0D01*
G01Y895700D01*
G02X1428500I15500J0D01*
G37*
G54D10*
X-76200Y-50800D03*
Y838200D03*
Y1282700D03*
Y2171700D03*
G54D11*
X-25400Y25400D03*
X-50800D03*
X-25400Y101600D03*
Y76200D03*
Y50800D03*
X-50800Y101600D03*
Y76200D03*
Y50800D03*
X-25400Y177800D03*
Y152400D03*
Y127000D03*
X-50800Y177800D03*
Y152400D03*
Y127000D03*
X-25400Y203200D03*
Y254000D03*
X-50800Y203200D03*
Y254000D03*
X-25400Y330200D03*
Y304800D03*
Y279400D03*
X-50800Y330200D03*
Y304800D03*
Y279400D03*
X-25400Y406400D03*
Y381000D03*
Y355600D03*
X-50800Y406400D03*
Y381000D03*
Y355600D03*
X-25400Y457200D03*
Y431800D03*
X-50800Y457200D03*
Y431800D03*
X-25400Y558800D03*
Y533400D03*
Y508000D03*
X-50800Y558800D03*
Y533400D03*
Y508000D03*
X-25400Y635000D03*
Y609600D03*
Y584200D03*
X-50800Y635000D03*
Y609600D03*
Y584200D03*
X-25400Y711200D03*
Y685800D03*
Y660400D03*
X-50800Y711200D03*
Y685800D03*
Y660400D03*
X-25400Y787400D03*
Y762000D03*
X-50800Y787400D03*
Y762000D03*
X-25400Y1384300D03*
Y1358900D03*
X-50800Y1384300D03*
Y1358900D03*
X-25400Y1460500D03*
Y1435100D03*
Y1409700D03*
X-50800Y1460500D03*
Y1435100D03*
Y1409700D03*
X-25400Y1536700D03*
Y1511300D03*
Y1485900D03*
X-50800Y1536700D03*
Y1511300D03*
Y1485900D03*
X-25400Y1612900D03*
Y1587500D03*
X-50800Y1612900D03*
Y1587500D03*
X-25400Y1689100D03*
Y1663700D03*
Y1638300D03*
X-50800Y1689100D03*
Y1663700D03*
Y1638300D03*
X-25400Y1765300D03*
Y1739900D03*
Y1714500D03*
X-50800Y1765300D03*
Y1739900D03*
Y1714500D03*
X-25400Y1841500D03*
Y1790700D03*
X-50800Y1841500D03*
Y1790700D03*
X-25400Y1917700D03*
Y1892300D03*
Y1866900D03*
X-50800Y1917700D03*
Y1892300D03*
Y1866900D03*
X-25400Y1993900D03*
Y1968500D03*
Y1943100D03*
X-50800Y1993900D03*
Y1968500D03*
Y1943100D03*
X-25400Y2044700D03*
Y2019300D03*
X-50800Y2044700D03*
Y2019300D03*
X-25400Y2120900D03*
Y2095500D03*
X-50800Y2120900D03*
Y2095500D03*
X0Y25400D03*
Y101600D03*
Y76200D03*
Y50800D03*
Y177800D03*
Y152400D03*
Y127000D03*
Y203200D03*
Y254000D03*
Y330200D03*
Y304800D03*
Y279400D03*
Y406400D03*
Y381000D03*
Y355600D03*
Y457200D03*
Y431800D03*
Y558800D03*
Y533400D03*
Y508000D03*
Y635000D03*
Y609600D03*
Y584200D03*
Y711200D03*
Y685800D03*
Y660400D03*
Y787400D03*
Y762000D03*
Y1384300D03*
Y1358900D03*
Y1460500D03*
Y1435100D03*
Y1409700D03*
Y1536700D03*
Y1511300D03*
Y1485900D03*
Y1612900D03*
Y1587500D03*
Y1689100D03*
Y1663700D03*
Y1638300D03*
Y1765300D03*
Y1739900D03*
Y1714500D03*
Y1841500D03*
Y1790700D03*
Y1917700D03*
Y1892300D03*
Y1866900D03*
Y1993900D03*
Y1968500D03*
Y1943100D03*
Y2044700D03*
Y2019300D03*
Y2120900D03*
Y2095500D03*
X127000Y1682750D03*
X177800D03*
X228600D03*
G54D20*
X120650Y845150D03*
X130150Y819150D03*
X120650D03*
X139650Y845150D03*
Y819150D03*
X1165250Y990900D03*
X1184250D03*
Y964900D03*
X1174750D03*
X1165250D03*
G54D21*
X120650Y1450950D03*
Y1431950D03*
Y1571600D03*
Y1552600D03*
X146050Y1457300D03*
Y1438300D03*
Y1577950D03*
Y1558950D03*
X304800Y562000D03*
Y581000D03*
X330200Y1387450D03*
Y1368450D03*
X349250Y1343050D03*
Y1362050D03*
Y1406550D03*
Y1425550D03*
X323850Y1412900D03*
Y1431900D03*
X336550Y1482750D03*
Y1501750D03*
X387350Y1343050D03*
Y1362050D03*
X368300Y1343050D03*
Y1362050D03*
X406400Y1343050D03*
Y1362050D03*
X527050Y1533550D03*
Y1552550D03*
X609600Y1387500D03*
X635000D03*
X609600Y1406500D03*
X635000D03*
X958850Y1012800D03*
Y993800D03*
X1022350Y1082700D03*
X1003300D03*
X1041400Y1019200D03*
Y1038200D03*
X1022350Y1101700D03*
X1003300D03*
X1035050Y1228700D03*
Y1209700D03*
X1009650Y1228750D03*
Y1285850D03*
Y1266850D03*
Y1247750D03*
X1098550Y66700D03*
Y85700D03*
Y974750D03*
Y993750D03*
X1060450Y1019200D03*
Y1038200D03*
X1098550D03*
Y1019200D03*
X1117600D03*
Y1038200D03*
X1054100Y1228700D03*
Y1209700D03*
X1174750Y1038200D03*
Y1019200D03*
X1193800Y1038200D03*
Y1019200D03*
X1168400Y1152550D03*
Y1171550D03*
X1212850Y974750D03*
Y993750D03*
X1225550Y1152550D03*
Y1171550D03*
X1320800Y1152550D03*
X1339850D03*
X1282700D03*
X1320800Y1171550D03*
X1339850D03*
X1282700D03*
G54D12*
X-25400Y0D03*
X-50800D03*
X-25400Y228600D03*
X-50800D03*
X-25400Y482600D03*
X-50800D03*
X-25400Y736600D03*
X-50800D03*
X-25400Y1333500D03*
X-50800D03*
X-25400Y1562100D03*
X-50800D03*
X-25400Y1816100D03*
X-50800D03*
X-25400Y2070100D03*
X-50800D03*
X0Y0D03*
Y228600D03*
Y482600D03*
Y736600D03*
Y1333500D03*
Y1562100D03*
Y1816100D03*
Y2070100D03*
X69850Y2114550D03*
X254000Y1682750D03*
X539750Y1041400D03*
X615950Y1587500D03*
X1111250Y850900D03*
X1377950Y152400D03*
Y254000D03*
Y355600D03*
Y457200D03*
Y558800D03*
Y660400D03*
Y762000D03*
Y863600D03*
G54D30*
X584200Y1371600D03*
Y1403350D03*
X1016000Y927100D03*
X1054100D03*
X1016000Y977900D03*
X1111250Y107950D03*
Y38100D03*
X1104900Y1238250D03*
Y1289050D03*
X1155700Y1123950D03*
X1187450D03*
X1263650Y996950D03*
Y965200D03*
X1225550Y1123950D03*
G54D31*
X609600Y1340800D03*
Y1364300D03*
X635000Y1340800D03*
Y1364300D03*
G54D22*
X84100Y1625600D03*
X119100D03*
X319050Y1682750D03*
X354050D03*
X903250Y1371600D03*
X938250D03*
G54D13*
X0Y-50800D03*
Y2171700D03*
X1371600Y-50800D03*
Y2171700D03*
G54D14*
X47600Y635000D03*
X28600D03*
X47600Y609600D03*
X28600D03*
X47600Y1841500D03*
X28600D03*
X47600Y1816100D03*
X28600D03*
X47600Y1790700D03*
X28600D03*
Y1866900D03*
X47600D03*
X28600Y1892300D03*
X47600D03*
X28600Y1917700D03*
X47600D03*
X28600Y1943100D03*
X47600D03*
X288950Y1816100D03*
Y1790700D03*
Y1847850D03*
Y1930400D03*
Y1873250D03*
Y1905000D03*
Y1987550D03*
Y1962150D03*
Y2044700D03*
Y2076450D03*
Y2019300D03*
Y2101850D03*
Y2133600D03*
X307950Y1816100D03*
Y1790700D03*
Y1847850D03*
Y1930400D03*
Y1873250D03*
Y1905000D03*
Y1987550D03*
Y1962150D03*
Y2044700D03*
Y2076450D03*
Y2019300D03*
Y2101850D03*
Y2133600D03*
X1330300Y152400D03*
X1311300D03*
X1330300Y127000D03*
X1311300D03*
X1330300Y254000D03*
X1311300D03*
X1330300Y228600D03*
X1311300D03*
X1330300Y355600D03*
X1311300D03*
X1330300Y457200D03*
X1311300D03*
X1330300Y431800D03*
X1311300D03*
X1330300Y558800D03*
X1311300D03*
X1330300Y533400D03*
X1311300D03*
X1330300Y635000D03*
X1311300D03*
X1330300Y660400D03*
X1311300D03*
X1330300Y762000D03*
X1311300D03*
X1330300Y736600D03*
X1311300D03*
X1330300Y863600D03*
X1311300D03*
G54D23*
X69850Y2139950D03*
X539750Y1016000D03*
X641350Y1485900D03*
X615950D03*
X641350Y1511300D03*
X615950D03*
X641350Y1536700D03*
X615950D03*
X641350Y1562100D03*
X615950D03*
X641350Y1587500D03*
X1111250Y876300D03*
X1377950Y127000D03*
Y228600D03*
Y330200D03*
Y431800D03*
Y533400D03*
Y635000D03*
Y736600D03*
Y838200D03*
G54D32*
X983950Y1019200D03*
Y1028700D03*
Y1038200D03*
X1009950D03*
Y1028700D03*
Y1019200D03*
G54D15*
X34800Y691650D03*
Y730750D03*
Y755150D03*
Y794250D03*
Y1466350D03*
Y1536200D03*
Y1505450D03*
Y1575300D03*
X111000Y450350D03*
Y489450D03*
X107950Y614950D03*
Y691150D03*
Y654050D03*
X66800Y691650D03*
X107950Y754650D03*
Y730250D03*
X66800Y730750D03*
Y755150D03*
X107950Y793750D03*
X66800Y794250D03*
Y1466350D03*
Y1536200D03*
Y1505450D03*
Y1575300D03*
X143000Y450350D03*
Y489450D03*
X139950Y614950D03*
Y691150D03*
Y654050D03*
Y754650D03*
Y730250D03*
Y793750D03*
X803400Y609100D03*
X771400D03*
X803400Y648200D03*
X771400D03*
G54D33*
X1038450Y1253900D03*
Y1260400D03*
Y1266900D03*
Y1273400D03*
X1082450D03*
Y1266900D03*
Y1260400D03*
Y1253900D03*
G54D24*
X177800Y546100D03*
Y558800D03*
Y571500D03*
Y584200D03*
Y596900D03*
Y609600D03*
Y622300D03*
Y635000D03*
Y685800D03*
Y698500D03*
Y711200D03*
Y647700D03*
Y660400D03*
Y723900D03*
Y736600D03*
Y749300D03*
Y762000D03*
Y774700D03*
Y787400D03*
Y800100D03*
X182100Y1371600D03*
Y1384300D03*
Y1397000D03*
Y1409700D03*
Y1422400D03*
Y1435100D03*
Y1447800D03*
Y1460500D03*
Y1492250D03*
Y1504950D03*
Y1517650D03*
Y1530350D03*
Y1543050D03*
Y1555750D03*
Y1568450D03*
Y1581150D03*
X270800Y558800D03*
Y546100D03*
Y635000D03*
Y622300D03*
Y609600D03*
Y596900D03*
Y584200D03*
Y571500D03*
Y711200D03*
Y698500D03*
Y685800D03*
Y660400D03*
Y647700D03*
Y787400D03*
Y774700D03*
Y762000D03*
Y749300D03*
Y736600D03*
Y723900D03*
Y800100D03*
X275100Y1397000D03*
Y1384300D03*
Y1371600D03*
Y1460500D03*
Y1447800D03*
Y1435100D03*
Y1422400D03*
Y1409700D03*
Y1543050D03*
Y1530350D03*
Y1517650D03*
Y1504950D03*
Y1492250D03*
Y1581150D03*
Y1568450D03*
Y1555750D03*
G54D16*
X34800Y704850D03*
Y717550D03*
Y768350D03*
Y781050D03*
Y1549400D03*
Y1479550D03*
Y1492250D03*
Y1562100D03*
X111000Y463550D03*
Y476250D03*
X107950Y628150D03*
Y704350D03*
Y640850D03*
X66800Y704850D03*
X107950Y767850D03*
Y780550D03*
Y717050D03*
X66800Y717550D03*
Y781050D03*
Y768350D03*
Y1549400D03*
Y1492250D03*
Y1479550D03*
Y1562100D03*
X143000Y476250D03*
Y463550D03*
X139950Y628150D03*
Y704350D03*
Y640850D03*
Y780550D03*
Y767850D03*
Y717050D03*
X803400Y635000D03*
Y622300D03*
X771400D03*
Y635000D03*
G54D25*
X170900Y1847850D03*
Y1790700D03*
Y1816100D03*
Y1905000D03*
Y1930400D03*
Y1873250D03*
Y1962150D03*
Y1987550D03*
Y2019300D03*
Y2044700D03*
Y2076450D03*
Y2101850D03*
Y2133600D03*
Y2159000D03*
X260900Y1847850D03*
Y1816100D03*
Y1790700D03*
Y1930400D03*
Y1905000D03*
Y1873250D03*
Y1987550D03*
Y1962150D03*
Y2044700D03*
Y2019300D03*
Y2076450D03*
Y2101850D03*
Y2159000D03*
Y2133600D03*
G54D34*
X1203550Y1196500D03*
Y1201500D03*
Y1206500D03*
Y1211500D03*
Y1216500D03*
X1247550D03*
Y1211500D03*
Y1206500D03*
Y1201500D03*
Y1196500D03*
G54D26*
X363900Y1600200D03*
X448900D03*
G54D17*
X50800Y1312000D03*
Y1355000D03*
X44450Y1972400D03*
Y2015400D03*
G54D35*
X1460500Y-50800D03*
Y838200D03*
Y1282700D03*
Y2171700D03*
G54D18*
X31750Y1653650D03*
Y1635650D03*
X387350Y1736200D03*
Y1718200D03*
X533400Y1349900D03*
Y1367900D03*
X984250Y1083200D03*
Y1101200D03*
X1035050Y1310750D03*
Y1292750D03*
X1009650Y1399650D03*
Y1381650D03*
X1079500Y1019700D03*
Y1037700D03*
X1168400Y1203850D03*
Y1221850D03*
X1225550Y1241950D03*
Y1259950D03*
X1301750Y1153050D03*
Y1171050D03*
X1358900D03*
Y1153050D03*
G54D27*
X437900Y1390300D03*
X429900D03*
Y1505300D03*
X437900D03*
X509900Y1390300D03*
X501900D03*
X493900D03*
X485900D03*
X477900D03*
X469900D03*
X461900D03*
X453900D03*
X445900D03*
Y1505300D03*
X453900D03*
X461900D03*
X469900D03*
X477900D03*
X485900D03*
X493900D03*
X501900D03*
X509900D03*
X1047750Y1084250D03*
Y1138250D03*
X1085850Y1084250D03*
X1073150D03*
X1060450D03*
Y1138250D03*
X1073150D03*
X1085850D03*
X1339850Y1198550D03*
X1327150D03*
X1314450D03*
X1301750D03*
Y1252550D03*
X1314450D03*
X1327150D03*
X1339850D03*
G54D19*
X57150Y1653150D03*
Y1636150D03*
X95250Y821200D03*
Y838200D03*
X152400Y560950D03*
Y543950D03*
X196850Y1223400D03*
Y1240400D03*
X146050Y1386450D03*
Y1369450D03*
Y1507100D03*
Y1490100D03*
X266700Y834000D03*
Y817000D03*
X279400Y1242450D03*
Y1259450D03*
X311150Y1386450D03*
Y1369450D03*
Y1500750D03*
Y1483750D03*
X361950Y1735700D03*
Y1718700D03*
X381000Y1413900D03*
Y1430900D03*
X431800Y1642500D03*
Y1659500D03*
X406400Y1642500D03*
Y1659500D03*
X482600Y1350400D03*
Y1367400D03*
X457200Y1350400D03*
Y1367400D03*
X482600Y1551550D03*
Y1534550D03*
X558800Y1469000D03*
Y1452000D03*
X552450Y1551550D03*
Y1534550D03*
X660400Y1242450D03*
Y1259450D03*
X654050Y1735700D03*
Y1718700D03*
X958850Y1032900D03*
Y1049900D03*
X1041400Y992750D03*
Y975750D03*
X1022350Y1134500D03*
Y1151500D03*
X1035050Y1189600D03*
Y1172600D03*
X984250Y1399150D03*
Y1382150D03*
X1117600Y67700D03*
Y84700D03*
X1060450Y975750D03*
Y992750D03*
X1079500Y975750D03*
Y992750D03*
X1054100Y1189600D03*
Y1172600D03*
Y1293250D03*
Y1310250D03*
X1136650Y975750D03*
Y992750D03*
X1187450Y1170550D03*
Y1153550D03*
X1231900Y975750D03*
Y992750D03*
X1263650Y1153550D03*
Y1170550D03*
X1206500D03*
Y1153550D03*
X1244600Y1242450D03*
Y1259450D03*
X1282700Y1242450D03*
Y1259450D03*
G54D28*
X412400Y1407800D03*
Y1415800D03*
Y1423800D03*
Y1431800D03*
Y1439800D03*
Y1447800D03*
Y1455800D03*
Y1463800D03*
Y1471800D03*
Y1479800D03*
Y1487800D03*
X527400Y1471800D03*
Y1463800D03*
Y1455800D03*
Y1447800D03*
Y1439800D03*
Y1431800D03*
Y1423800D03*
Y1415800D03*
Y1407800D03*
Y1487800D03*
Y1479800D03*
G54D29*
X381000Y2157800D03*
X390500Y2134800D03*
X371500D03*
X781050Y862400D03*
X790550Y839400D03*
X771550D03*
X819150Y862400D03*
X809650Y839400D03*
X895350Y862400D03*
X885850Y839400D03*
X857250Y862400D03*
X866750Y839400D03*
X847750D03*
X828650D03*
X904850D03*
M02*
